BBB Poppins TN-500i.ufo
<glyph name="exclam" format="1">
  <advance width="321"/>
  <unicode hex="0021"/>
  <outline>
    <contour>
      <point x="168" y="695" type="line"/>
      <point x="95" y="210" type="line"/>
      <point x="190" y="210" type="line"/>
      <point x="289" y="695" type="line"/>
    </contour>
    <component base="period" xOffset="40"/>
  </outline>
</glyph>
<glyph name="quotedbl" format="1">
  <advance width="323"/>
  <unicode hex="0022"/>
  <outline>
    <contour>
      <point x="123" y="797" type="line"/>
      <point x="100" y="592" type="line"/>
      <point x="178" y="592" type="line"/>
      <point x="226" y="797" type="line"/>
    </contour>
    <contour>
      <point x="274" y="797" type="line"/>
      <point x="251" y="592" type="line"/>
      <point x="329" y="592" type="line"/>
      <point x="377" y="797" type="line"/>
    </contour>
  </outline>
</glyph>
<glyph name="ampersand" format="1">
  <advance width="775"/>
  <unicode hex="0026"/>
  <outline>
    <contour>
      <point x="455" y="550" type="curve"/>
      <point x="569" y="550" type="line"/>
      <point x="571" y="560"/>
      <point x="572" y="569"/>
      <point x="572" y="578" type="curve" smooth="yes"/>
      <point x="572" y="651"/>
      <point x="516" y="711"/>
      <point x="413" y="711" type="curve" smooth="yes"/>
      <point x="281" y="711"/>
      <point x="191" y="630"/>
      <point x="191" y="514" type="curve" smooth="yes"/>
      <point x="191" y="471"/>
      <point x="209" y="433"/>
      <point x="254" y="379" type="curve" smooth="yes"/>
      <point x="565" y="0" type="line"/>
      <point x="714" y="0" type="line"/>
      <point x="357" y="429" type="line" smooth="yes"/>
      <point x="324" y="474"/>
      <point x="307" y="503"/>
      <point x="307" y="534" type="curve" smooth="yes"/>
      <point x="307" y="578"/>
      <point x="343" y="618"/>
      <point x="395" y="618" type="curve" smooth="yes"/>
      <point x="433" y="618"/>
      <point x="456" y="597"/>
      <point x="456" y="564" type="curve" smooth="yes"/>
      <point x="456" y="559"/>
      <point x="456" y="555"/>
    </contour>
    <contour>
      <point x="353" y="369" type="line"/>
      <point x="305" y="444" type="line"/>
      <point x="262" y="431" type="line" smooth="yes"/>
      <point x="121" y="389"/>
      <point x="19" y="292"/>
      <point x="19" y="165" type="curve" smooth="yes"/>
      <point x="19" y="53"/>
      <point x="102" y="-13"/>
      <point x="236" y="-13" type="curve" smooth="yes"/>
      <point x="381" y="-13"/>
      <point x="493" y="59"/>
      <point x="607" y="209" type="curve" smooth="yes"/>
      <point x="724" y="363" type="line"/>
      <point x="601" y="363" type="line"/>
      <point x="504" y="240" type="line" smooth="yes"/>
      <point x="423" y="136"/>
      <point x="345" y="84"/>
      <point x="253" y="84" type="curve" smooth="yes"/>
      <point x="180" y="84"/>
      <point x="136" y="126"/>
      <point x="136" y="183" type="curve" smooth="yes"/>
      <point x="136" y="265"/>
      <point x="205" y="322"/>
      <point x="302" y="353" type="curve" smooth="yes"/>
    </contour>
  </outline>
</glyph>
<glyph name="quotesingle" format="1">
  <advance width="172"/>
  <unicode hex="0027"/>
  <outline>
    <contour>
      <point x="123" y="797" type="line"/>
      <point x="100" y="592" type="line"/>
      <point x="178" y="592" type="line"/>
      <point x="226" y="797" type="line"/>
    </contour>
  </outline>
</glyph>
<glyph name="parenleft" format="1">
  <advance width="415"/>
  <unicode hex="0028"/>
  <outline>
    <contour>
      <point x="210" y="-86" type="curve"/>
      <point x="337" y="-86" type="line"/>
      <point x="243" y="42"/>
      <point x="196" y="153"/>
      <point x="196" y="273" type="curve" smooth="yes"/>
      <point x="196" y="474"/>
      <point x="342" y="647"/>
      <point x="499" y="794" type="curve"/>
      <point x="366" y="794" type="line"/>
      <point x="194" y="636"/>
      <point x="84" y="457"/>
      <point x="84" y="242" type="curve" smooth="yes"/>
      <point x="84" y="116"/>
      <point x="129" y="15"/>
    </contour>
  </outline>
</glyph>
<glyph name="parenright" format="1">
  <advance width="414"/>
  <unicode hex="0029"/>
  <outline>
    <contour>
      <point x="84" y="-86" type="line"/>
      <point x="280" y="93"/>
      <point x="355" y="271"/>
      <point x="355" y="442" type="curve" smooth="yes"/>
      <point x="355" y="581"/>
      <point x="309" y="687"/>
      <point x="232" y="794" type="curve"/>
      <point x="107" y="794" type="line"/>
      <point x="198" y="665"/>
      <point x="243" y="552"/>
      <point x="243" y="429" type="curve" smooth="yes"/>
      <point x="243" y="224"/>
      <point x="110" y="65"/>
      <point x="-54" y="-86" type="curve"/>
    </contour>
  </outline>
</glyph>
<glyph name="plus" format="1">
  <advance width="714"/>
  <unicode hex="002B"/>
  <outline>
    <contour>
      <point x="468" y="616" type="line"/>
      <point x="360" y="616" type="line"/>
      <point x="270" y="106" type="line"/>
      <point x="378" y="106" type="line"/>
    </contour>
    <contour>
      <point x="123" y="412" type="line"/>
      <point x="105" y="310" type="line"/>
      <point x="615" y="310" type="line"/>
      <point x="633" y="412" type="line"/>
    </contour>
  </outline>
</glyph>
<glyph name="comma" format="1">
  <advance width="225"/>
  <unicode hex="002C"/>
  <outline>
    <contour>
      <point x="-92" y="-130" type="line"/>
      <point x="20" y="-130" type="line"/>
      <point x="172" y="134" type="line"/>
      <point x="52" y="134" type="line"/>
    </contour>
  </outline>
</glyph>
<glyph name="slash" format="1">
  <advance width="514"/>
  <unicode hex="002F"/>
  <outline>
    <contour>
      <point x="447" y="944" type="line"/>
      <point x="-22" y="-175" type="line"/>
      <point x="90" y="-175" type="line"/>
      <point x="560" y="944" type="line"/>
    </contour>
  </outline>
</glyph>
<glyph name="one" format="1">
  <advance width="350"/>
  <unicode hex="0031"/>
  <outline>
    <contour>
      <point x="193" y="606" type="line"/>
      <point x="86" y="0" type="line"/>
      <point x="201" y="0" type="line"/>
      <point x="327" y="710" type="line"/>
      <point x="119" y="710" type="line"/>
      <point x="100" y="606" type="line"/>
    </contour>
  </outline>
</glyph>
<glyph name="seven" format="1">
  <advance width="560"/>
  <unicode hex="0037"/>
  <outline>
    <contour>
      <point x="598" y="726" type="line"/>
      <point x="116" y="726" type="line"/>
      <point x="100" y="631" type="line"/>
      <point x="470" y="631" type="line"/>
      <point x="67" y="0" type="line"/>
      <point x="192" y="0" type="line"/>
      <point x="583" y="641" type="line"/>
    </contour>
  </outline>
</glyph>
<glyph name="less" format="1">
  <advance width="612"/>
  <unicode hex="003C"/>
  <outline>
    <contour>
      <point x="444" y="134" type="line"/>
      <point x="253" y="361" type="line"/>
      <point x="524" y="588" type="line"/>
      <point x="380" y="588" type="line"/>
      <point x="110" y="361" type="line"/>
      <point x="300" y="134" type="line"/>
    </contour>
  </outline>
</glyph>
<glyph name="equal" format="1">
  <advance width="774"/>
  <unicode hex="003D"/>
  <outline>
    <contour>
      <point x="122" y="298" type="line"/>
      <point x="104" y="197" type="line"/>
      <point x="636" y="197" type="line"/>
      <point x="654" y="298" type="line"/>
    </contour>
    <contour>
      <point x="162" y="525" type="line"/>
      <point x="144" y="424" type="line"/>
      <point x="676" y="424" type="line"/>
      <point x="694" y="525" type="line"/>
    </contour>
  </outline>
</glyph>
<glyph name="greater" format="1">
  <advance width="590"/>
  <unicode hex="003E"/>
  <outline>
    <contour>
      <point x="355" y="361" type="line"/>
      <point x="84" y="134" type="line"/>
      <point x="228" y="134" type="line"/>
      <point x="498" y="361" type="line"/>
      <point x="308" y="588" type="line"/>
      <point x="164" y="588" type="line"/>
    </contour>
  </outline>
</glyph>
<glyph name="A" format="1">
  <advance width="695"/>
  <unicode hex="0041"/>
  <outline>
    <contour>
      <point x="490" y="696" type="line"/>
      <point x="358" y="696" type="line"/>
      <point x="-14" y="0" type="line"/>
      <point x="105" y="0" type="line"/>
      <point x="439" y="634" type="line"/>
      <point x="386" y="634" type="line"/>
      <point x="496" y="0" type="line"/>
      <point x="616" y="0" type="line"/>
    </contour>
    <contour>
      <point x="160" y="231" type="line"/>
      <point x="115" y="142" type="line"/>
      <point x="531" y="142" type="line"/>
      <point x="517" y="231" type="line"/>
    </contour>
    <contour>
      <point x="616" y="0" type="move" name="ogonek"/>
    </contour>
    <contour>
      <point x="424" y="696" type="move" name="top"/>
    </contour>
  </outline>
</glyph>
<glyph name="B" format="1">
  <advance width="631"/>
  <unicode hex="0042"/>
  <outline>
    <contour>
      <point x="500" y="567"/>
      <point x="489" y="502" type="curve" smooth="yes"/>
      <point x="478" y="438"/>
      <point x="426" y="400"/>
      <point x="352" y="400" type="curve" smooth="yes"/>
      <point x="211" y="400" type="line"/>
      <point x="247" y="606" type="line"/>
      <point x="388" y="606" type="line" smooth="yes"/>
      <point x="462" y="606"/>
    </contour>
    <contour>
      <point x="547" y="81"/>
      <point x="565" y="187" type="curve" smooth="yes"/>
      <point x="581" y="277"/>
      <point x="525" y="356"/>
      <point x="443" y="359" type="curve"/>
      <point x="424" y="347" type="line"/>
      <point x="511" y="364"/>
      <point x="590" y="417"/>
      <point x="607" y="516" type="curve" smooth="yes"/>
      <point x="625" y="614"/>
      <point x="561" y="695"/>
      <point x="414" y="695" type="curve" smooth="yes"/>
      <point x="149" y="695" type="line"/>
      <point x="26" y="0" type="line"/>
      <point x="304" y="0" type="line" smooth="yes"/>
      <point x="446" y="0"/>
    </contour>
    <contour>
      <point x="466" y="268"/>
      <point x="453" y="199" type="curve" smooth="yes"/>
      <point x="441" y="130"/>
      <point x="387" y="89"/>
      <point x="310" y="89" type="curve" smooth="yes"/>
      <point x="156" y="89" type="line"/>
      <point x="195" y="311" type="line"/>
      <point x="345" y="311" type="line" smooth="yes"/>
      <point x="421" y="311"/>
    </contour>
  </outline>
</glyph>
<glyph name="C" format="1">
  <advance width="743"/>
  <unicode hex="0043"/>
  <outline>
    <contour>
      <point x="90" y="557"/>
      <point x="53" y="349" type="curve" smooth="yes"/>
      <point x="16" y="140"/>
      <point x="149" y="-6"/>
      <point x="345" y="-6" type="curve" smooth="yes"/>
      <point x="490" y="-6"/>
      <point x="628" y="66"/>
      <point x="705" y="202" type="curve"/>
      <point x="568" y="202" type="line"/>
      <point x="519" y="132"/>
      <point x="446" y="97"/>
      <point x="363" y="97" type="curve" smooth="yes"/>
      <point x="225" y="97"/>
      <point x="143" y="196"/>
      <point x="170" y="349" type="curve" smooth="yes"/>
      <point x="197" y="502"/>
      <point x="314" y="600"/>
      <point x="452" y="600" type="curve" smooth="yes"/>
      <point x="535" y="600"/>
      <point x="595" y="565"/>
      <point x="620" y="495" type="curve"/>
      <point x="757" y="495" type="line"/>
      <point x="728" y="631"/>
      <point x="615" y="704"/>
      <point x="470" y="704" type="curve" smooth="yes"/>
      <point x="274" y="704"/>
    </contour>
    <contour>
      <point x="340" y="0" type="move" name="bottom"/>
    </contour>
    <contour>
      <point x="463" y="696" type="move" name="top"/>
    </contour>
  </outline>
</glyph>
<glyph name="D" format="1">
  <advance width="711"/>
  <unicode hex="0044"/>
  <outline>
    <contour>
      <point x="599" y="695"/>
      <point x="376" y="695" type="curve" smooth="yes"/>
      <point x="149" y="695" type="line"/>
      <point x="26" y="0" type="line"/>
      <point x="253" y="0" type="line" smooth="yes"/>
      <point x="476" y="0"/>
      <point x="645" y="131"/>
      <point x="683" y="345" type="curve" smooth="yes"/>
      <point x="721" y="560"/>
    </contour>
    <contour>
      <point x="269" y="87" type="curve" smooth="yes"/>
      <point x="156" y="87" type="line"/>
      <point x="247" y="603" type="line"/>
      <point x="360" y="603" type="line" smooth="yes"/>
      <point x="524" y="603"/>
      <point x="594" y="504"/>
      <point x="566" y="345" type="curve" smooth="yes"/>
      <point x="538" y="187"/>
      <point x="433" y="87"/>
    </contour>
    <contour>
      <point x="429" y="696" type="move" name="top"/>
    </contour>
  </outline>
</glyph>
<glyph name="E" format="1">
  <advance width="509"/>
  <unicode hex="0045"/>
  <outline>
    <contour>
      <point x="517" y="607" type="line"/>
      <point x="533" y="696" type="line"/>
      <point x="149" y="696" type="line"/>
      <point x="26" y="0" type="line"/>
      <point x="410" y="0" type="line"/>
      <point x="426" y="89" type="line"/>
      <point x="156" y="89" type="line"/>
      <point x="195" y="308" type="line"/>
      <point x="435" y="308" type="line"/>
      <point x="450" y="396" type="line"/>
      <point x="210" y="396" type="line"/>
      <point x="247" y="607" type="line"/>
    </contour>
    <contour>
      <point x="213" y="0" type="move" name="bottom"/>
    </contour>
    <contour>
      <point x="410" y="0" type="move" name="ogonek"/>
    </contour>
    <contour>
      <point x="336" y="696" type="move" name="top"/>
    </contour>
  </outline>
</glyph>
<glyph name="F" format="1">
  <advance width="504"/>
  <unicode hex="0046"/>
  <outline>
    <contour>
      <point x="149" y="695" type="line"/>
      <point x="26" y="0" type="line"/>
      <point x="140" y="0" type="line"/>
      <point x="194" y="307" type="line"/>
      <point x="363" y="307" type="line"/>
      <point x="448" y="395" type="line"/>
      <point x="210" y="395" type="line"/>
      <point x="247" y="606" type="line"/>
      <point x="542" y="606" type="line"/>
      <point x="558" y="695" type="line"/>
    </contour>
  </outline>
</glyph>
<glyph name="G" format="1">
  <advance width="779"/>
  <unicode hex="0047"/>
  <outline>
    <contour>
      <point x="90" y="557"/>
      <point x="53" y="349" type="curve" smooth="yes"/>
      <point x="16" y="140"/>
      <point x="149" y="-6"/>
      <point x="345" y="-6" type="curve" smooth="yes"/>
      <point x="532" y="-6"/>
      <point x="692" y="131"/>
      <point x="742" y="292" type="curve"/>
      <point x="758" y="381" type="line"/>
      <point x="436" y="381" type="line"/>
      <point x="350" y="292" type="line"/>
      <point x="620" y="292" type="line"/>
      <point x="583" y="174"/>
      <point x="489" y="97"/>
      <point x="363" y="97" type="curve" smooth="yes"/>
      <point x="225" y="97"/>
      <point x="143" y="196"/>
      <point x="170" y="349" type="curve" smooth="yes"/>
      <point x="197" y="502"/>
      <point x="314" y="600"/>
      <point x="452" y="600" type="curve" smooth="yes"/>
      <point x="535" y="600"/>
      <point x="595" y="565"/>
      <point x="620" y="495" type="curve"/>
      <point x="757" y="495" type="line"/>
      <point x="728" y="631"/>
      <point x="615" y="704"/>
      <point x="470" y="704" type="curve" smooth="yes"/>
      <point x="274" y="704"/>
    </contour>
    <contour>
      <point x="340" y="0" type="move" name="bottom"/>
    </contour>
    <contour>
      <point x="463" y="696" type="move" name="top"/>
    </contour>
  </outline>
</glyph>
<glyph name="I" format="1">
  <advance width="264"/>
  <unicode hex="0049"/>
  <outline>
    <contour>
      <point x="149" y="695" type="line"/>
      <point x="26" y="0" type="line"/>
      <point x="140" y="0" type="line"/>
      <point x="263" y="695" type="line"/>
    </contour>
    <contour>
      <point x="141" y="1" type="move" name="ogonek"/>
    </contour>
    <contour>
      <point x="206" y="696" type="move" name="top"/>
    </contour>
  </outline>
</glyph>
<glyph name="J" format="1">
  <advance width="490"/>
  <unicode hex="004A"/>
  <outline>
    <contour>
      <point x="374" y="695" type="line"/>
      <point x="286" y="194" type="line" smooth="yes"/>
      <point x="275" y="136"/>
      <point x="239" y="94"/>
      <point x="178" y="94" type="curve" smooth="yes"/>
      <point x="117" y="94"/>
      <point x="96" y="136"/>
      <point x="106" y="194" type="curve"/>
      <point x="-9" y="194" type="line"/>
      <point x="-32" y="68"/>
      <point x="40" y="-7"/>
      <point x="160" y="-7" type="curve" smooth="yes"/>
      <point x="280" y="-7"/>
      <point x="378" y="68"/>
      <point x="401" y="194" type="curve" smooth="yes"/>
      <point x="489" y="695" type="line"/>
    </contour>
  </outline>
</glyph>
<glyph name="K" format="1">
  <advance width="607"/>
  <unicode hex="004B"/>
  <outline>
    <contour>
      <point x="149" y="695" type="line"/>
      <point x="26" y="0" type="line"/>
      <point x="140" y="0" type="line"/>
      <point x="263" y="695" type="line"/>
    </contour>
    <contour>
      <point x="530" y="695" type="line"/>
      <point x="209" y="344" type="line"/>
      <point x="406" y="0" type="line"/>
      <point x="548" y="0" type="line"/>
      <point x="327" y="360" type="line"/>
      <point x="309" y="321" type="line"/>
      <point x="666" y="695" type="line"/>
    </contour>
    <contour>
      <point x="268" y="0" type="move" name="bottom"/>
    </contour>
    <contour>
      <point x="391" y="696" type="move" name="top"/>
    </contour>
  </outline>
</glyph>
<glyph name="L" format="1">
  <advance width="439"/>
  <unicode hex="004C"/>
  <outline>
    <contour>
      <point x="263" y="695" type="line"/>
      <point x="149" y="695" type="line"/>
      <point x="26" y="0" type="line"/>
      <point x="375" y="0" type="line"/>
      <point x="391" y="87" type="line"/>
      <point x="156" y="87" type="line"/>
    </contour>
    <contour>
      <point x="199" y="0" type="move" name="bottom"/>
    </contour>
    <contour>
      <point x="201" y="10" type="move" name="commaaccent"/>
    </contour>
    <contour>
      <point x="296" y="696" type="move" name="top"/>
    </contour>
    <contour>
      <point x="498" y="696" type="move" name="topright"/>
    </contour>
  </outline>
</glyph>
<glyph name="M" format="1">
  <advance width="883"/>
  <unicode hex="004D"/>
  <outline>
    <contour>
      <point x="149" y="695" type="line"/>
      <point x="27" y="0" type="line"/>
      <point x="141" y="0" type="line"/>
      <point x="257" y="661" type="line"/>
      <point x="250" y="661" type="line"/>
      <point x="354" y="0" type="line"/>
      <point x="433" y="0" type="line"/>
      <point x="767" y="661" type="line"/>
      <point x="761" y="661" type="line"/>
      <point x="645" y="0" type="line"/>
      <point x="759" y="0" type="line"/>
      <point x="881" y="695" type="line"/>
      <point x="678" y="695" type="line"/>
      <point x="389" y="104" type="line"/>
      <point x="434" y="104" type="line"/>
      <point x="348" y="695" type="line"/>
    </contour>
  </outline>
</glyph>
<glyph name="N" format="1">
  <advance width="722"/>
  <unicode hex="004E"/>
  <outline>
    <contour>
      <point x="523" y="0" type="line"/>
      <point x="345" y="696" type="line"/>
      <point x="235" y="696" type="line"/>
      <point x="412" y="0" type="line"/>
    </contour>
    <contour>
      <point x="484" y="0" type="line"/>
      <point x="598" y="0" type="line"/>
      <point x="720" y="696" type="line"/>
      <point x="606" y="696" type="line"/>
    </contour>
    <contour>
      <point x="263" y="696" type="line"/>
      <point x="149" y="696" type="line"/>
      <point x="27" y="0" type="line"/>
      <point x="141" y="0" type="line"/>
    </contour>
    <contour>
      <point x="313" y="0" type="move" name="bottom"/>
    </contour>
    <contour>
      <point x="436" y="696" type="move" name="top"/>
    </contour>
  </outline>
</glyph>
<glyph name="O" format="1">
  <advance width="782"/>
  <unicode hex="004F"/>
  <outline>
    <contour>
      <point x="345" y="-7" type="curve" smooth="yes"/>
      <point x="584" y="-7"/>
      <point x="759" y="170"/>
      <point x="759" y="412" type="curve" smooth="yes"/>
      <point x="759" y="583"/>
      <point x="642" y="704"/>
      <point x="462" y="704" type="curve" smooth="yes"/>
      <point x="225" y="704"/>
      <point x="49" y="527"/>
      <point x="49" y="286" type="curve" smooth="yes"/>
      <point x="49" y="114"/>
      <point x="167" y="-7"/>
    </contour>
    <contour>
      <point x="361" y="96" type="curve" smooth="yes"/>
      <point x="239" y="96"/>
      <point x="167" y="172"/>
      <point x="167" y="293" type="curve" smooth="yes"/>
      <point x="167" y="460"/>
      <point x="278" y="600"/>
      <point x="446" y="600" type="curve" smooth="yes"/>
      <point x="569" y="600"/>
      <point x="641" y="525"/>
      <point x="641" y="404" type="curve" smooth="yes"/>
      <point x="641" y="238"/>
      <point x="529" y="96"/>
    </contour>
    <contour>
      <point x="462" y="704" type="move" name="top"/>
    </contour>
  </outline>
</glyph>
<glyph name="P" format="1">
  <advance width="596"/>
  <unicode hex="0050"/>
  <outline>
    <contour>
      <point x="332" y="371" type="curve" smooth="yes"/>
      <point x="206" y="371" type="line"/>
      <point x="247" y="606" type="line"/>
      <point x="373" y="606" type="line" smooth="yes"/>
      <point x="462" y="606"/>
      <point x="494" y="560"/>
      <point x="481" y="488" type="curve" smooth="yes"/>
      <point x="469" y="418"/>
      <point x="421" y="371"/>
    </contour>
    <contour>
      <point x="581" y="389"/>
      <point x="598" y="488" type="curve" smooth="yes"/>
      <point x="618" y="601"/>
      <point x="554" y="695"/>
      <point x="389" y="695" type="curve" smooth="yes"/>
      <point x="149" y="695" type="line"/>
      <point x="26" y="0" type="line"/>
      <point x="140" y="0" type="line"/>
      <point x="190" y="282" type="line"/>
      <point x="316" y="282" type="line" smooth="yes"/>
      <point x="497" y="282"/>
    </contour>
  </outline>
</glyph>
<glyph name="Q" format="1">
  <advance width="787"/>
  <unicode hex="0051"/>
  <outline>
    <contour>
      <point x="441" y="347" type="line"/>
      <point x="322" y="347" type="line"/>
      <point x="551" y="-96" type="line"/>
      <point x="670" y="-96" type="line"/>
    </contour>
    <component base="O"/>
  </outline>
</glyph>
<glyph name="R" format="1">
  <advance width="627"/>
  <unicode hex="0052"/>
  <outline>
    <contour>
      <point x="494" y="559"/>
      <point x="481" y="487" type="curve" smooth="yes"/>
      <point x="469" y="417"/>
      <point x="420" y="368"/>
      <point x="331" y="368" type="curve" smooth="yes"/>
      <point x="205" y="368" type="line"/>
      <point x="247" y="606" type="line"/>
      <point x="373" y="606" type="line" smooth="yes"/>
      <point x="462" y="606"/>
    </contour>
    <contour>
      <point x="389" y="695" type="curve" smooth="yes"/>
      <point x="149" y="695" type="line"/>
      <point x="26" y="0" type="line"/>
      <point x="140" y="0" type="line"/>
      <point x="189" y="278" type="line"/>
      <point x="315" y="278" type="line" smooth="yes"/>
      <point x="496" y="278"/>
      <point x="581" y="388"/>
      <point x="598" y="487" type="curve" smooth="yes"/>
      <point x="618" y="600"/>
      <point x="554" y="695"/>
    </contour>
    <contour>
      <point x="391" y="315" type="line"/>
      <point x="262" y="315" type="line"/>
      <point x="387" y="0" type="line"/>
      <point x="523" y="0" type="line"/>
    </contour>
    <contour>
      <point x="267" y="0" type="move" name="bottom"/>
    </contour>
    <contour>
      <point x="390" y="696" type="move" name="top"/>
    </contour>
  </outline>
</glyph>
<glyph name="U" format="1">
  <advance width="685"/>
  <unicode hex="0055"/>
  <outline>
    <contour>
      <point x="144" y="695" type="line"/>
      <point x="66" y="254" type="line" smooth="yes"/>
      <point x="35" y="77"/>
      <point x="144" y="-7"/>
      <point x="290" y="-7" type="curve" smooth="yes"/>
      <point x="435" y="-7"/>
      <point x="578" y="77"/>
      <point x="609" y="254" type="curve" smooth="yes"/>
      <point x="687" y="695" type="line"/>
      <point x="573" y="695" type="line"/>
      <point x="495" y="254" type="line" smooth="yes"/>
      <point x="476" y="146"/>
      <point x="406" y="95"/>
      <point x="309" y="95" type="curve" smooth="yes"/>
      <point x="213" y="95"/>
      <point x="161" y="146"/>
      <point x="180" y="254" type="curve" smooth="yes"/>
      <point x="258" y="695" type="line"/>
    </contour>
    <contour>
      <point x="365" y="0" type="move" name="ogonek"/>
    </contour>
    <contour>
      <point x="415" y="696" type="move" name="top"/>
    </contour>
  </outline>
</glyph>
<glyph name="V" format="1">
  <advance width="685"/>
  <unicode hex="0056"/>
  <outline>
    <contour>
      <point x="618" y="695" type="line"/>
      <point x="275" y="42" type="line"/>
      <point x="301" y="42" type="line"/>
      <point x="205" y="695" type="line"/>
      <point x="84" y="695" type="line"/>
      <point x="209" y="0" type="line"/>
      <point x="357" y="0" type="line"/>
      <point x="739" y="695" type="line"/>
    </contour>
  </outline>
</glyph>
<glyph name="W" format="1">
  <advance width="991"/>
  <unicode hex="0057"/>
  <outline>
    <contour>
      <point x="84" y="695" type="line"/>
      <point x="158" y="0" type="line"/>
      <point x="297" y="0" type="line"/>
      <point x="569" y="628" type="line"/>
      <point x="539" y="628" type="line"/>
      <point x="587" y="0" type="line"/>
      <point x="726" y="0" type="line"/>
      <point x="1045" y="695" type="line"/>
      <point x="924" y="695" type="line"/>
      <point x="652" y="32" type="line"/>
      <point x="681" y="32" type="line"/>
      <point x="631" y="695" type="line"/>
      <point x="499" y="695" type="line"/>
      <point x="220" y="32" type="line"/>
      <point x="249" y="32" type="line"/>
      <point x="205" y="695" type="line"/>
    </contour>
  </outline>
</glyph>
<glyph name="X" format="1">
  <advance width="641"/>
  <unicode hex="0058"/>
  <outline>
    <contour>
      <point x="114" y="695" type="line"/>
      <point x="423" y="0" type="line"/>
      <point x="551" y="0" type="line"/>
      <point x="242" y="695" type="line"/>
    </contour>
    <contour>
      <point x="339" y="290" type="line"/>
      <point x="293" y="378" type="line"/>
      <point x="-9" y="0" type="line"/>
      <point x="119" y="0" type="line"/>
    </contour>
    <contour>
      <point x="327" y="405" type="line"/>
      <point x="373" y="317" type="line"/>
      <point x="675" y="695" type="line"/>
      <point x="547" y="695" type="line"/>
    </contour>
  </outline>
</glyph>
<glyph name="Z" format="1">
  <advance width="554"/>
  <unicode hex="005A"/>
  <outline>
    <contour>
      <point x="562" y="606" type="line"/>
      <point x="578" y="695" type="line"/>
      <point x="120" y="695" type="line"/>
      <point x="102" y="596" type="line"/>
      <point x="424" y="596" type="line"/>
      <point x="13" y="89" type="line"/>
      <point x="-3" y="0" type="line"/>
      <point x="455" y="0" type="line"/>
      <point x="473" y="99" type="line"/>
      <point x="150" y="99" type="line"/>
    </contour>
    <contour>
      <point x="349" y="696" type="move" name="top"/>
    </contour>
  </outline>
</glyph>
<glyph name="bracketleft" format="1">
  <advance width="485"/>
  <unicode hex="005B"/>
  <outline>
    <contour>
      <point x="263" y="944" type="line"/>
      <point x="65" y="-176" type="line"/>
      <point x="273" y="-176" type="line"/>
      <point x="290" y="-81" type="line"/>
      <point x="189" y="-81" type="line"/>
      <point x="353" y="850" type="line"/>
      <point x="454" y="850" type="line"/>
      <point x="471" y="944" type="line"/>
    </contour>
  </outline>
</glyph>
<glyph name="backslash" format="1">
  <advance width="532"/>
  <unicode hex="005C"/>
  <outline>
    <contour>
      <point x="369" y="-175" type="line"/>
      <point x="307" y="944" type="line"/>
      <point x="195" y="944" type="line"/>
      <point x="257" y="-175" type="line"/>
    </contour>
  </outline>
</glyph>
<glyph name="underscore" format="1">
  <advance width="798"/>
  <unicode hex="005F"/>
  <outline>
    <contour>
      <point x="67" y="-40" type="line"/>
      <point x="49" y="-146" type="line"/>
      <point x="607" y="-146" type="line"/>
      <point x="625" y="-40" type="line"/>
    </contour>
  </outline>
</glyph>
<glyph name="grave" format="1">
  <advance width="254"/>
  <unicode hex="0060"/>
  <outline>
    <contour>
      <point x="88" y="796" type="line"/>
      <point x="69" y="690" type="line"/>
      <point x="294" y="568" type="line"/>
      <point x="311" y="659" type="line"/>
    </contour>
    <contour>
      <point x="173" y="551" type="move" name="_top"/>
    </contour>
  </outline>
</glyph>
<glyph name="a" format="1">
  <advance width="607"/>
  <unicode hex="0061"/>
  <outline>
    <contour>
      <point x="391" y="80" type="curve"/>
      <point x="377" y="0" type="line"/>
      <point x="493" y="0" type="line"/>
      <point x="550" y="323" type="line" smooth="yes"/>
      <point x="553" y="342"/>
      <point x="555" y="360"/>
      <point x="555" y="376" type="curve" smooth="yes"/>
      <point x="555" y="499"/>
      <point x="467" y="567"/>
      <point x="353" y="567" type="curve" smooth="yes"/>
      <point x="208" y="567"/>
      <point x="114" y="481"/>
      <point x="77" y="362" type="curve"/>
      <point x="189" y="362" type="line"/>
      <point x="213" y="434"/>
      <point x="267" y="473"/>
      <point x="331" y="473" type="curve" smooth="yes"/>
      <point x="400" y="473"/>
      <point x="437" y="432"/>
      <point x="437" y="362" type="curve" smooth="yes"/>
      <point x="437" y="351"/>
      <point x="436" y="339"/>
      <point x="434" y="326" type="curve"/>
      <point x="278" y="326" type="line" smooth="yes"/>
      <point x="135" y="326"/>
      <point x="23" y="251"/>
      <point x="23" y="134" type="curve" smooth="yes"/>
      <point x="23" y="46"/>
      <point x="87" y="-10"/>
      <point x="184" y="-10" type="curve" smooth="yes"/>
      <point x="272" y="-10"/>
      <point x="354" y="32"/>
    </contour>
    <contour>
      <point x="230" y="89" type="curve" smooth="yes"/>
      <point x="174" y="89"/>
      <point x="143" y="117"/>
      <point x="143" y="159" type="curve" smooth="yes"/>
      <point x="143" y="203"/>
      <point x="184" y="245"/>
      <point x="264" y="245" type="curve" smooth="yes"/>
      <point x="420" y="245" type="line"/>
      <point x="420" y="242" type="line"/>
      <point x="401" y="136"/>
      <point x="299" y="89"/>
    </contour>
    <contour>
      <point x="493" y="0" type="move" name="ogonek"/>
    </contour>
    <contour>
      <point x="353" y="567" type="move" name="top"/>
    </contour>
  </outline>
</glyph>
<glyph name="b" format="1">
  <advance width="665"/>
  <unicode hex="0062"/>
  <outline>
    <contour>
      <point x="258" y="519"/>
      <point x="213" y="469" type="curve"/>
      <point x="261" y="740" type="line"/>
      <point x="147" y="740" type="line"/>
      <point x="16" y="0" type="line"/>
      <point x="130" y="0" type="line"/>
      <point x="144" y="80" type="line"/>
      <point x="172" y="32"/>
      <point x="230" y="-9"/>
      <point x="321" y="-9" type="curve" smooth="yes"/>
      <point x="466" y="-9"/>
      <point x="600" y="108"/>
      <point x="630" y="278" type="curve" smooth="yes"/>
      <point x="660" y="448"/>
      <point x="567" y="560"/>
      <point x="421" y="560" type="curve" smooth="yes"/>
      <point x="334" y="560"/>
    </contour>
    <contour>
      <point x="535" y="397"/>
      <point x="514" y="278" type="curve" smooth="yes"/>
      <point x="493" y="159"/>
      <point x="399" y="90"/>
      <point x="313" y="90" type="curve" smooth="yes"/>
      <point x="228" y="90"/>
      <point x="158" y="157"/>
      <point x="179" y="276" type="curve" smooth="yes"/>
      <point x="200" y="394"/>
      <point x="294" y="461"/>
      <point x="379" y="461" type="curve" smooth="yes"/>
      <point x="465" y="461"/>
    </contour>
  </outline>
</glyph>
<glyph name="c" format="1">
  <advance width="579"/>
  <unicode hex="0063"/>
  <outline>
    <contour>
      <point x="65" y="448"/>
      <point x="35" y="276" type="curve" smooth="yes"/>
      <point x="4" y="103"/>
      <point x="97" y="-9"/>
      <point x="255" y="-9" type="curve" smooth="yes"/>
      <point x="390" y="-9"/>
      <point x="491" y="66"/>
      <point x="541" y="174" type="curve"/>
      <point x="418" y="174" type="line"/>
      <point x="387" y="117"/>
      <point x="340" y="87"/>
      <point x="272" y="87" type="curve" smooth="yes"/>
      <point x="180" y="87"/>
      <point x="131" y="155"/>
      <point x="152" y="276" type="curve" smooth="yes"/>
      <point x="173" y="396"/>
      <point x="246" y="464"/>
      <point x="338" y="464" type="curve" smooth="yes"/>
      <point x="406" y="464"/>
      <point x="444" y="430"/>
      <point x="454" y="377" type="curve"/>
      <point x="577" y="377" type="line"/>
      <point x="566" y="493"/>
      <point x="490" y="560"/>
      <point x="355" y="560" type="curve" smooth="yes"/>
      <point x="197" y="560"/>
    </contour>
    <contour>
      <point x="249" y="0" type="move" name="bottom"/>
    </contour>
    <contour>
      <point x="346" y="551" type="move" name="top"/>
    </contour>
  </outline>
</glyph>
<glyph name="d" format="1">
  <advance width="666"/>
  <unicode hex="0064"/>
  <outline>
    <contour>
      <point x="65" y="448"/>
      <point x="35" y="278" type="curve" smooth="yes"/>
      <point x="5" y="108"/>
      <point x="100" y="-9"/>
      <point x="245" y="-9" type="curve" smooth="yes"/>
      <point x="335" y="-9"/>
      <point x="408" y="33"/>
      <point x="452" y="83" type="curve"/>
      <point x="437" y="0" type="line"/>
      <point x="552" y="0" type="line"/>
      <point x="683" y="740" type="line"/>
      <point x="568" y="740" type="line"/>
      <point x="521" y="474" type="line"/>
      <point x="488" y="526"/>
      <point x="418" y="560"/>
      <point x="346" y="560" type="curve" smooth="yes"/>
      <point x="200" y="560"/>
    </contour>
    <contour>
      <point x="507" y="394"/>
      <point x="486" y="276" type="curve" smooth="yes"/>
      <point x="465" y="157"/>
      <point x="372" y="90"/>
      <point x="286" y="90" type="curve" smooth="yes"/>
      <point x="201" y="90"/>
      <point x="131" y="159"/>
      <point x="152" y="278" type="curve" smooth="yes"/>
      <point x="173" y="397"/>
      <point x="267" y="461"/>
      <point x="352" y="461" type="curve" smooth="yes"/>
      <point x="438" y="461"/>
    </contour>
    <contour>
      <point x="683" y="740" type="move" name="topright"/>
    </contour>
  </outline>
</glyph>
<glyph name="f" format="1">
  <advance width="333"/>
  <unicode hex="0066"/>
  <outline>
    <contour>
      <point x="146" y="590" type="curve" smooth="yes"/>
      <point x="42" y="0" type="line"/>
      <point x="157" y="0" type="line"/>
      <point x="261" y="590" type="line" smooth="yes"/>
      <point x="272" y="653"/>
      <point x="301" y="677"/>
      <point x="371" y="677" type="curve"/>
      <point x="387" y="772" type="line"/>
      <point x="243" y="772"/>
      <point x="169" y="717"/>
    </contour>
    <contour>
      <point x="74" y="551" type="line"/>
      <point x="58" y="458" type="line"/>
      <point x="340" y="458" type="line"/>
      <point x="356" y="551" type="line"/>
    </contour>
  </outline>
</glyph>
<glyph name="g" format="1">
  <advance width="656"/>
  <unicode hex="0067"/>
  <outline>
    <contour>
      <point x="345" y="560" type="curve" smooth="yes"/>
      <point x="200" y="560"/>
      <point x="65" y="448"/>
      <point x="35" y="278" type="curve" smooth="yes"/>
      <point x="5" y="108"/>
      <point x="100" y="-9"/>
      <point x="245" y="-9" type="curve" smooth="yes"/>
      <point x="335" y="-9"/>
      <point x="409" y="36"/>
      <point x="452" y="83" type="curve"/>
      <point x="436" y="-9" type="line" smooth="yes"/>
      <point x="416" y="-119"/>
      <point x="341" y="-173"/>
      <point x="253" y="-173" type="curve" smooth="yes"/>
      <point x="174" y="-173"/>
      <point x="120" y="-134"/>
      <point x="113" y="-77" type="curve"/>
      <point x="0" y="-77" type="line"/>
      <point x="-8" y="-199"/>
      <point x="88" y="-272"/>
      <point x="235" y="-272" type="curve" smooth="yes"/>
      <point x="407" y="-272"/>
      <point x="524" y="-159"/>
      <point x="551" y="-9" type="curve" smooth="yes"/>
      <point x="649" y="551" type="line"/>
      <point x="534" y="551" type="line"/>
      <point x="520" y="471" type="line"/>
      <point x="495" y="518"/>
      <point x="435" y="560"/>
    </contour>
    <contour>
      <point x="507" y="394"/>
      <point x="486" y="276" type="curve" smooth="yes"/>
      <point x="465" y="157"/>
      <point x="372" y="90"/>
      <point x="286" y="90" type="curve" smooth="yes"/>
      <point x="201" y="90"/>
      <point x="131" y="159"/>
      <point x="152" y="278" type="curve" smooth="yes"/>
      <point x="173" y="397"/>
      <point x="267" y="461"/>
      <point x="352" y="461" type="curve" smooth="yes"/>
      <point x="438" y="461"/>
    </contour>
    <contour>
      <point x="385" y="551" type="move" name="top"/>
    </contour>
  </outline>
</glyph>
<glyph name="h" format="1">
  <advance width="634"/>
  <unicode hex="0068"/>
  <outline>
    <contour>
      <point x="147" y="740" type="line"/>
      <point x="16" y="0" type="line"/>
      <point x="130" y="0" type="line"/>
      <point x="261" y="740" type="line"/>
    </contour>
    <contour>
      <point x="462" y="308" type="curve" smooth="yes"/>
      <point x="407" y="0" type="line"/>
      <point x="520" y="0" type="line"/>
      <point x="578" y="325" type="line" smooth="yes"/>
      <point x="605" y="479"/>
      <point x="523" y="560"/>
      <point x="400" y="560" type="curve" smooth="yes"/>
      <point x="304" y="560"/>
      <point x="214" y="510"/>
      <point x="177" y="432" type="curve"/>
      <point x="185" y="308" type="line"/>
      <point x="202" y="409"/>
      <point x="267" y="461"/>
      <point x="351" y="461" type="curve" smooth="yes"/>
      <point x="434" y="461"/>
      <point x="479" y="409"/>
    </contour>
  </outline>
</glyph>
<glyph name="i" format="1">
  <advance width="265"/>
  <unicode hex="0069"/>
  <outline>
    <contour>
      <point x="123" y="551" type="line"/>
      <point x="26" y="0" type="line"/>
      <point x="140" y="0" type="line"/>
      <point x="237" y="551" type="line"/>
    </contour>
    <contour>
      <point x="153" y="624"/>
      <point x="194" y="624" type="curve" smooth="yes"/>
      <point x="234" y="624"/>
      <point x="272" y="656"/>
      <point x="279" y="697" type="curve" smooth="yes"/>
      <point x="286" y="738"/>
      <point x="260" y="770"/>
      <point x="220" y="770" type="curve" smooth="yes"/>
      <point x="179" y="770"/>
      <point x="141" y="738"/>
      <point x="134" y="697" type="curve" smooth="yes"/>
      <point x="127" y="656"/>
    </contour>
    <contour>
      <point x="141" y="1" type="move" name="ogonek"/>
    </contour>
  </outline>
</glyph>
<glyph name="j" format="1">
  <advance width="258"/>
  <unicode hex="006A"/>
  <outline>
    <contour>
      <point x="146" y="624"/>
      <point x="187" y="624" type="curve" smooth="yes"/>
      <point x="227" y="624"/>
      <point x="265" y="656"/>
      <point x="272" y="697" type="curve" smooth="yes"/>
      <point x="279" y="738"/>
      <point x="253" y="770"/>
      <point x="213" y="770" type="curve" smooth="yes"/>
      <point x="172" y="770"/>
      <point x="134" y="738"/>
      <point x="127" y="697" type="curve" smooth="yes"/>
      <point x="120" y="656"/>
    </contour>
    <contour>
      <point x="230" y="551" type="line"/>
      <point x="116" y="551" type="line"/>
      <point x="0" y="-108" type="line" smooth="yes"/>
      <point x="-7" y="-149"/>
      <point x="-26" y="-166"/>
      <point x="-74" y="-166" type="curve" smooth="yes"/>
      <point x="-113" y="-166" type="line"/>
      <point x="-130" y="-262" type="line"/>
      <point x="-71" y="-262" type="line" smooth="yes"/>
      <point x="27" y="-262"/>
      <point x="95" y="-220"/>
      <point x="114" y="-108" type="curve" smooth="yes"/>
    </contour>
  </outline>
</glyph>
<glyph name="k" format="1">
  <advance width="544"/>
  <unicode hex="006B"/>
  <outline>
    <contour>
      <point x="147" y="740" type="line"/>
      <point x="16" y="0" type="line"/>
      <point x="130" y="0" type="line"/>
      <point x="261" y="740" type="line"/>
    </contour>
    <contour>
      <point x="441" y="551" type="line"/>
      <point x="191" y="273" type="line"/>
      <point x="348" y="0" type="line"/>
      <point x="495" y="0" type="line"/>
      <point x="310" y="288" type="line"/>
      <point x="297" y="255" type="line"/>
      <point x="592" y="551" type="line"/>
    </contour>
    <contour>
      <point x="218" y="0" type="move" name="bottom"/>
    </contour>
  </outline>
</glyph>
<glyph name="l" format="1">
  <advance width="244"/>
  <unicode hex="006C"/>
  <outline>
    <contour>
      <point x="136" y="679" type="line"/>
      <point x="16" y="0" type="line"/>
      <point x="130" y="0" type="line"/>
      <point x="267" y="774" type="line"/>
    </contour>
    <contour>
      <point x="73" y="0" type="move" name="bottom"/>
    </contour>
    <contour>
      <point x="75" y="10" type="move" name="commaaccent"/>
    </contour>
    <contour>
      <point x="204" y="740" type="move" name="top"/>
    </contour>
    <contour>
      <point x="282" y="551" type="move" name="topright"/>
    </contour>
  </outline>
</glyph>
<glyph name="m" format="1">
  <advance width="1030"/>
  <unicode hex="006D"/>
  <outline>
    <contour>
      <point x="119" y="551" type="line"/>
      <point x="22" y="0" type="line"/>
      <point x="136" y="0" type="line"/>
      <point x="233" y="551" type="line"/>
    </contour>
    <contour>
      <point x="468" y="308" type="curve" smooth="yes"/>
      <point x="413" y="0" type="line"/>
      <point x="526" y="0" type="line"/>
      <point x="584" y="325" type="line" smooth="yes"/>
      <point x="611" y="479"/>
      <point x="527" y="560"/>
      <point x="398" y="560" type="curve" smooth="yes"/>
      <point x="308" y="560"/>
      <point x="220" y="510"/>
      <point x="183" y="432" type="curve"/>
      <point x="191" y="308" type="line"/>
      <point x="208" y="409"/>
      <point x="273" y="461"/>
      <point x="357" y="461" type="curve" smooth="yes"/>
      <point x="440" y="461"/>
      <point x="485" y="409"/>
    </contour>
    <contour>
      <point x="858" y="308" type="curve" smooth="yes"/>
      <point x="803" y="0" type="line"/>
      <point x="916" y="0" type="line"/>
      <point x="974" y="325" type="line" smooth="yes"/>
      <point x="1001" y="479"/>
      <point x="917" y="560"/>
      <point x="788" y="560" type="curve" smooth="yes"/>
      <point x="700" y="560"/>
      <point x="607" y="510"/>
      <point x="566" y="432" type="curve"/>
      <point x="581" y="308" type="line"/>
      <point x="598" y="409"/>
      <point x="663" y="461"/>
      <point x="747" y="461" type="curve" smooth="yes"/>
      <point x="830" y="461"/>
      <point x="875" y="409"/>
    </contour>
  </outline>
</glyph>
<glyph name="n" format="1">
  <advance width="640"/>
  <unicode hex="006E"/>
  <outline>
    <contour>
      <point x="119" y="551" type="line"/>
      <point x="22" y="0" type="line"/>
      <point x="136" y="0" type="line"/>
      <point x="233" y="551" type="line"/>
    </contour>
    <contour>
      <point x="468" y="308" type="curve" smooth="yes"/>
      <point x="413" y="0" type="line"/>
      <point x="526" y="0" type="line"/>
      <point x="584" y="325" type="line" smooth="yes"/>
      <point x="611" y="479"/>
      <point x="528" y="560"/>
      <point x="399" y="560" type="curve" smooth="yes"/>
      <point x="309" y="560"/>
      <point x="220" y="510"/>
      <point x="183" y="432" type="curve"/>
      <point x="191" y="308" type="line"/>
      <point x="208" y="409"/>
      <point x="273" y="461"/>
      <point x="357" y="461" type="curve" smooth="yes"/>
      <point x="440" y="461"/>
      <point x="485" y="409"/>
    </contour>
    <contour>
      <point x="272" y="0" type="move" name="bottom"/>
    </contour>
    <contour>
      <point x="379" y="551" type="move" name="top"/>
    </contour>
  </outline>
</glyph>
<glyph name="o" format="1">
  <advance width="635"/>
  <unicode hex="006F"/>
  <outline>
    <contour>
      <point x="266" y="-9" type="curve" smooth="yes"/>
      <point x="456" y="-9"/>
      <point x="604" y="138"/>
      <point x="604" y="327" type="curve" smooth="yes"/>
      <point x="604" y="466"/>
      <point x="506" y="560"/>
      <point x="365" y="560" type="curve" smooth="yes"/>
      <point x="173" y="560"/>
      <point x="31" y="410"/>
      <point x="31" y="223" type="curve" smooth="yes"/>
      <point x="31" y="85"/>
      <point x="125" y="-9"/>
    </contour>
    <contour>
      <point x="280" y="87" type="curve" smooth="yes"/>
      <point x="206" y="87"/>
      <point x="149" y="135"/>
      <point x="149" y="228" type="curve" smooth="yes"/>
      <point x="149" y="352"/>
      <point x="229" y="464"/>
      <point x="349" y="464" type="curve" smooth="yes"/>
      <point x="423" y="464"/>
      <point x="486" y="416"/>
      <point x="486" y="320" type="curve" smooth="yes"/>
      <point x="486" y="198"/>
      <point x="398" y="87"/>
    </contour>
    <contour>
      <point x="365" y="560" type="move" name="top"/>
    </contour>
  </outline>
</glyph>
<glyph name="p" format="1">
  <advance width="666"/>
  <unicode hex="0070"/>
  <outline>
    <contour>
      <point x="257" y="516"/>
      <point x="214" y="470" type="curve"/>
      <point x="228" y="551" type="line"/>
      <point x="114" y="551" type="line"/>
      <point x="-29" y="-262" type="line"/>
      <point x="85" y="-262" type="line"/>
      <point x="145" y="80" type="line"/>
      <point x="174" y="37"/>
      <point x="231" y="-9"/>
      <point x="322" y="-9" type="curve" smooth="yes"/>
      <point x="467" y="-9"/>
      <point x="601" y="108"/>
      <point x="631" y="278" type="curve" smooth="yes"/>
      <point x="661" y="448"/>
      <point x="567" y="560"/>
      <point x="422" y="560" type="curve" smooth="yes"/>
      <point x="332" y="560"/>
    </contour>
    <contour>
      <point x="536" y="397"/>
      <point x="515" y="278" type="curve" smooth="yes"/>
      <point x="494" y="159"/>
      <point x="400" y="90"/>
      <point x="314" y="90" type="curve" smooth="yes"/>
      <point x="229" y="90"/>
      <point x="159" y="157"/>
      <point x="180" y="276" type="curve" smooth="yes"/>
      <point x="201" y="394"/>
      <point x="295" y="461"/>
      <point x="380" y="461" type="curve" smooth="yes"/>
      <point x="466" y="461"/>
    </contour>
  </outline>
</glyph>
<glyph name="q" format="1">
  <advance width="666"/>
  <unicode hex="0071"/>
  <outline>
    <contour>
      <point x="65" y="448"/>
      <point x="35" y="278" type="curve" smooth="yes"/>
      <point x="5" y="108"/>
      <point x="100" y="-9"/>
      <point x="242" y="-9" type="curve" smooth="yes"/>
      <point x="335" y="-9"/>
      <point x="412" y="37"/>
      <point x="451" y="80" type="curve"/>
      <point x="391" y="-262" type="line"/>
      <point x="506" y="-262" type="line"/>
      <point x="649" y="551" type="line"/>
      <point x="534" y="551" type="line"/>
      <point x="520" y="471" type="line"/>
      <point x="496" y="516"/>
      <point x="437" y="560"/>
      <point x="346" y="560" type="curve" smooth="yes"/>
      <point x="200" y="560"/>
    </contour>
    <contour>
      <point x="507" y="394"/>
      <point x="486" y="276" type="curve" smooth="yes"/>
      <point x="465" y="157"/>
      <point x="372" y="90"/>
      <point x="286" y="90" type="curve" smooth="yes"/>
      <point x="201" y="90"/>
      <point x="131" y="159"/>
      <point x="152" y="278" type="curve" smooth="yes"/>
      <point x="173" y="397"/>
      <point x="267" y="461"/>
      <point x="352" y="461" type="curve" smooth="yes"/>
      <point x="438" y="461"/>
    </contour>
  </outline>
</glyph>
<glyph name="r" format="1">
  <advance width="375"/>
  <unicode hex="0072"/>
  <outline>
    <contour>
      <point x="153" y="290" type="curve"/>
      <point x="187" y="290" type="line"/>
      <point x="208" y="407"/>
      <point x="266" y="442"/>
      <point x="350" y="442" type="curve" smooth="yes"/>
      <point x="379" y="442" type="line"/>
      <point x="400" y="560" type="line"/>
      <point x="266" y="560"/>
      <point x="180" y="439"/>
    </contour>
    <contour>
      <point x="119" y="551" type="line"/>
      <point x="22" y="0" type="line"/>
      <point x="136" y="0" type="line"/>
      <point x="233" y="551" type="line"/>
    </contour>
    <contour>
      <point x="79" y="0" type="move" name="bottom"/>
    </contour>
    <contour>
      <point x="285" y="551" type="move" name="top"/>
    </contour>
  </outline>
</glyph>
<glyph name="s" format="1">
  <advance width="512"/>
  <unicode hex="0073"/>
  <outline>
    <contour>
      <point x="224" y="-9" type="curve" smooth="yes"/>
      <point x="355" y="-9"/>
      <point x="453" y="52"/>
      <point x="453" y="152" type="curve" smooth="yes"/>
      <point x="453" y="323"/>
      <point x="182" y="299"/>
      <point x="182" y="403" type="curve" smooth="yes"/>
      <point x="182" y="444"/>
      <point x="221" y="470"/>
      <point x="278" y="470" type="curve" smooth="yes"/>
      <point x="344" y="470"/>
      <point x="381" y="435"/>
      <point x="376" y="383" type="curve"/>
      <point x="484" y="383" type="line"/>
      <point x="497" y="489"/>
      <point x="410" y="560"/>
      <point x="285" y="560" type="curve" smooth="yes"/>
      <point x="156" y="560"/>
      <point x="67" y="495"/>
      <point x="67" y="398" type="curve" smooth="yes"/>
      <point x="67" y="220"/>
      <point x="341" y="246"/>
      <point x="341" y="148" type="curve" smooth="yes"/>
      <point x="341" y="101"/>
      <point x="291" y="81"/>
      <point x="231" y="81" type="curve" smooth="yes"/>
      <point x="164" y="81"/>
      <point x="127" y="119"/>
      <point x="132" y="169" type="curve"/>
      <point x="21" y="169" type="line"/>
      <point x="6" y="64"/>
      <point x="100" y="-9"/>
    </contour>
    <contour>
      <point x="213" y="0" type="move" name="bottom"/>
    </contour>
    <contour>
      <point x="310" y="551" type="move" name="top"/>
    </contour>
  </outline>
</glyph>
<glyph name="t" format="1">
  <advance width="370"/>
  <unicode hex="0074"/>
  <outline>
    <contour>
      <point x="154" y="629" type="line"/>
      <point x="69" y="153" type="line" smooth="yes"/>
      <point x="49" y="41"/>
      <point x="103" y="0"/>
      <point x="201" y="0" type="curve" smooth="yes"/>
      <point x="291" y="0" type="line"/>
      <point x="308" y="95" type="line"/>
      <point x="238" y="95" type="line" smooth="yes"/>
      <point x="190" y="95"/>
      <point x="177" y="112"/>
      <point x="184" y="153" type="curve" smooth="yes"/>
      <point x="285" y="724" type="line"/>
    </contour>
    <contour>
      <point x="58" y="458" type="line"/>
      <point x="372" y="458" type="line"/>
      <point x="388" y="551" type="line"/>
      <point x="74" y="551" type="line"/>
    </contour>
    <contour>
      <point x="136" y="0" type="move" name="bottom"/>
    </contour>
    <contour>
      <point x="298" y="828" type="move" name="topright"/>
    </contour>
  </outline>
</glyph>
<glyph name="u" format="1">
  <advance width="642"/>
  <unicode hex="0075"/>
  <outline>
    <contour>
      <point x="523" y="0" type="line"/>
      <point x="620" y="551" type="line"/>
      <point x="506" y="551" type="line"/>
      <point x="409" y="0" type="line"/>
    </contour>
    <contour>
      <point x="175" y="244" type="curve" smooth="yes"/>
      <point x="229" y="551" type="line"/>
      <point x="116" y="551" type="line"/>
      <point x="59" y="227" type="line" smooth="yes"/>
      <point x="32" y="73"/>
      <point x="116" y="-8"/>
      <point x="245" y="-8" type="curve" smooth="yes"/>
      <point x="333" y="-8"/>
      <point x="423" y="42"/>
      <point x="458" y="120" type="curve"/>
      <point x="452" y="244" type="line"/>
      <point x="435" y="143"/>
      <point x="370" y="91"/>
      <point x="286" y="91" type="curve" smooth="yes"/>
      <point x="203" y="91"/>
      <point x="158" y="143"/>
    </contour>
    <contour>
      <point x="523" y="-1" type="move" name="ogonek"/>
    </contour>
    <contour>
      <point x="371" y="551" type="move" name="top"/>
    </contour>
  </outline>
</glyph>
<glyph name="v" format="1">
  <advance width="559"/>
  <unicode hex="0076"/>
  <outline>
    <contour>
      <point x="170" y="551" type="line"/>
      <point x="49" y="551" type="line"/>
      <point x="152" y="0" type="line"/>
      <point x="308" y="0" type="line"/>
      <point x="603" y="551" type="line"/>
      <point x="482" y="551" type="line"/>
      <point x="214" y="16" type="line"/>
      <point x="252" y="16" type="line"/>
    </contour>
  </outline>
</glyph>
<glyph name="w" format="1">
  <advance width="810"/>
  <unicode hex="0077"/>
  <outline>
    <contour>
      <point x="49" y="551" type="line"/>
      <point x="113" y="0" type="line"/>
      <point x="253" y="0" type="line"/>
      <point x="463" y="489" type="line"/>
      <point x="430" y="489" type="line"/>
      <point x="457" y="0" type="line"/>
      <point x="597" y="0" type="line"/>
      <point x="854" y="551" type="line"/>
      <point x="743" y="551" type="line"/>
      <point x="522" y="36" type="line"/>
      <point x="540" y="36" type="line"/>
      <point x="514" y="551" type="line"/>
      <point x="396" y="551" type="line"/>
      <point x="175" y="36" type="line"/>
      <point x="192" y="36" type="line"/>
      <point x="166" y="551" type="line"/>
    </contour>
  </outline>
</glyph>
<glyph name="x" format="1">
  <advance width="498"/>
  <unicode hex="0078"/>
  <outline>
    <contour>
      <point x="60" y="551" type="line"/>
      <point x="320" y="0" type="line"/>
      <point x="438" y="0" type="line"/>
      <point x="178" y="551" type="line"/>
    </contour>
    <contour>
      <point x="260" y="225" type="line"/>
      <point x="222" y="313" type="line"/>
      <point x="-39" y="0" type="line"/>
      <point x="85" y="0" type="line"/>
    </contour>
    <contour>
      <point x="240" y="327" type="line"/>
      <point x="278" y="239" type="line"/>
      <point x="537" y="551" type="line"/>
      <point x="414" y="551" type="line"/>
    </contour>
  </outline>
</glyph>
<glyph name="y" format="1">
  <advance width="563"/>
  <unicode hex="0079"/>
  <outline>
    <contour>
      <point x="46" y="551" type="line"/>
      <point x="168" y="9" type="line"/>
      <point x="9" y="-259" type="line"/>
      <point x="127" y="-259" type="line"/>
      <point x="607" y="551" type="line"/>
      <point x="489" y="551" type="line"/>
      <point x="254" y="131" type="line"/>
      <point x="173" y="551" type="line"/>
    </contour>
    <contour>
      <point x="327" y="551" type="move" name="top"/>
    </contour>
  </outline>
</glyph>
<glyph name="z" format="1">
  <advance width="473"/>
  <unicode hex="007A"/>
  <outline>
    <contour>
      <point x="455" y="458" type="line"/>
      <point x="471" y="551" type="line"/>
      <point x="89" y="551" type="line"/>
      <point x="73" y="458" type="line"/>
      <point x="324" y="458" type="line"/>
      <point x="9" y="93" type="line"/>
      <point x="-8" y="0" type="line"/>
      <point x="374" y="0" type="line"/>
      <point x="391" y="93" type="line"/>
      <point x="141" y="93" type="line"/>
    </contour>
    <contour>
      <point x="281" y="551" type="move" name="top"/>
    </contour>
  </outline>
</glyph>
<glyph name="bar" format="1">
  <advance width="324"/>
  <unicode hex="007C"/>
  <outline>
    <contour>
      <point x="309" y="801" type="line"/>
      <point x="195" y="801" type="line"/>
      <point x="33" y="-113" type="line"/>
      <point x="147" y="-113" type="line"/>
    </contour>
  </outline>
</glyph>
<glyph name="asciitilde" format="1">
  <advance width="553"/>
  <unicode hex="007E"/>
  <outline>
    <contour>
      <point x="67" y="354"/>
      <point x="26" y="238" type="curve"/>
      <point x="108" y="238" type="line"/>
      <point x="122" y="279"/>
      <point x="155" y="301"/>
      <point x="188" y="301" type="curve"/>
      <point x="247" y="301"/>
      <point x="268" y="236"/>
      <point x="347" y="236" type="curve" smooth="yes"/>
      <point x="427" y="236"/>
      <point x="496" y="285"/>
      <point x="536" y="401" type="curve"/>
      <point x="453" y="401" type="line"/>
      <point x="440" y="359"/>
      <point x="406" y="338"/>
      <point x="374" y="338" type="curve" smooth="yes"/>
      <point x="316" y="338"/>
      <point x="293" y="403"/>
      <point x="214" y="403" type="curve" smooth="yes"/>
      <point x="134" y="403"/>
    </contour>
  </outline>
</glyph>
<glyph name="yen" format="1">
  <advance width="605"/>
  <unicode hex="00A5"/>
  <outline>
    <contour>
      <point x="387" y="395" type="line"/>
      <point x="358" y="311" type="line"/>
      <point x="564" y="313" type="line"/>
      <point x="578" y="395" type="line"/>
    </contour>
    <contour>
      <point x="33" y="222" type="line"/>
      <point x="19" y="140" type="line"/>
      <point x="533" y="140" type="line"/>
      <point x="547" y="222" type="line"/>
    </contour>
    <contour>
      <point x="86" y="695" type="line"/>
      <point x="239" y="252" type="line"/>
      <point x="194" y="0" type="line"/>
      <point x="308" y="0" type="line"/>
      <point x="353" y="252" type="line"/>
      <point x="661" y="695" type="line"/>
      <point x="533" y="695" type="line"/>
      <point x="277" y="300" type="line"/>
      <point x="330" y="300" type="line"/>
      <point x="213" y="695" type="line"/>
    </contour>
    <contour>
      <point x="64" y="395" type="line"/>
      <point x="50" y="313" type="line"/>
      <point x="272" y="311" type="line"/>
      <point x="273" y="395" type="line"/>
    </contour>
  </outline>
</glyph>
<glyph name="brokenbar" format="1">
  <advance width="324"/>
  <unicode hex="00A6"/>
  <outline>
    <contour>
      <point x="216" y="275" type="line"/>
      <point x="102" y="275" type="line"/>
      <point x="33" y="-113" type="line"/>
      <point x="147" y="-113" type="line"/>
    </contour>
    <contour>
      <point x="126" y="413" type="line"/>
      <point x="240" y="413" type="line"/>
      <point x="309" y="801" type="line"/>
      <point x="195" y="801" type="line"/>
    </contour>
  </outline>
</glyph>
<glyph name="dieresis" format="1">
  <advance width="312"/>
  <unicode hex="00A8"/>
  <outline>
    <contour>
      <point x="79" y="622"/>
      <point x="114" y="622" type="curve" smooth="yes"/>
      <point x="155" y="622"/>
      <point x="195" y="659"/>
      <point x="195" y="704" type="curve" smooth="yes"/>
      <point x="195" y="736"/>
      <point x="171" y="760"/>
      <point x="138" y="760" type="curve" smooth="yes"/>
      <point x="94" y="760"/>
      <point x="55" y="722"/>
      <point x="55" y="678" type="curve" smooth="yes"/>
      <point x="55" y="646"/>
    </contour>
    <contour>
      <point x="277" y="622"/>
      <point x="311" y="622" type="curve" smooth="yes"/>
      <point x="353" y="622"/>
      <point x="393" y="659"/>
      <point x="393" y="704" type="curve" smooth="yes"/>
      <point x="393" y="736"/>
      <point x="369" y="760"/>
      <point x="336" y="760" type="curve" smooth="yes"/>
      <point x="292" y="760"/>
      <point x="253" y="722"/>
      <point x="253" y="678" type="curve" smooth="yes"/>
      <point x="253" y="646"/>
    </contour>
    <contour>
      <point x="201" y="551" type="move" name="_top"/>
    </contour>
  </outline>
</glyph>
<glyph name="guillemotleft" format="1">
  <advance width="489"/>
  <unicode hex="00AB"/>
  <outline>
    <contour>
      <point x="216" y="120" type="line"/>
      <point x="151" y="295" type="line"/>
      <point x="278" y="470" type="line"/>
      <point x="168" y="470" type="line"/>
      <point x="45" y="295" type="line"/>
      <point x="106" y="120" type="line"/>
    </contour>
    <contour>
      <point x="408" y="120" type="line"/>
      <point x="343" y="295" type="line"/>
      <point x="470" y="470" type="line"/>
      <point x="360" y="470" type="line"/>
      <point x="237" y="295" type="line"/>
      <point x="298" y="120" type="line"/>
    </contour>
  </outline>
</glyph>
<glyph name="logicalnot" format="1">
  <advance width="748"/>
  <unicode hex="00AC"/>
  <outline>
    <contour>
      <point x="66" y="435" type="line"/>
      <point x="50" y="346" type="line"/>
      <point x="589" y="346" type="line"/>
      <point x="565" y="208" type="line"/>
      <point x="679" y="208" type="line"/>
      <point x="719" y="435" type="line"/>
    </contour>
  </outline>
</glyph>
<glyph name="macron" format="1">
  <advance width="386"/>
  <unicode hex="00AF"/>
  <outline>
    <contour>
      <point x="85" y="720" type="line"/>
      <point x="70" y="635" type="line"/>
      <point x="436" y="635" type="line"/>
      <point x="451" y="720" type="line"/>
    </contour>
    <contour>
      <point x="238" y="551" type="move" name="_top"/>
    </contour>
  </outline>
</glyph>
<glyph name="plusminus" format="1">
  <advance width="717"/>
  <unicode hex="00B1"/>
  <outline>
    <contour>
      <point x="471" y="621" type="line"/>
      <point x="362" y="621" type="line"/>
      <point x="282" y="166" type="line"/>
      <point x="391" y="166" type="line"/>
    </contour>
    <contour>
      <point x="135" y="471" type="line"/>
      <point x="117" y="369" type="line"/>
      <point x="626" y="369" type="line"/>
      <point x="644" y="471" type="line"/>
    </contour>
    <contour>
      <point x="92" y="225" type="line"/>
      <point x="74" y="124" type="line"/>
      <point x="583" y="124" type="line"/>
      <point x="601" y="225" type="line"/>
    </contour>
  </outline>
</glyph>
<glyph name="cedilla" format="1">
  <advance width="279"/>
  <unicode hex="00B8"/>
  <outline>
    <contour>
      <point x="-115" y="-154" type="line"/>
      <point x="13" y="-154" type="line"/>
      <point x="98" y="-3" type="line"/>
      <point x="4" y="-3" type="line"/>
    </contour>
    <contour>
      <point x="46" y="0" type="move" name="_bottom"/>
    </contour>
  </outline>
</glyph>
<glyph name="onesuperior" format="1">
  <advance width="209"/>
  <unicode hex="00B9"/>
  <outline>
    <contour>
      <point x="134" y="636" type="line"/>
      <point x="84" y="352" type="line"/>
      <point x="173" y="352" type="line"/>
      <point x="235" y="704" type="line"/>
      <point x="92" y="704" type="line"/>
      <point x="80" y="636" type="line"/>
    </contour>
  </outline>
</glyph>
<glyph name="guillemotright" format="1">
  <advance width="489"/>
  <unicode hex="00BB"/>
  <outline>
    <contour>
      <point x="211" y="120" type="line"/>
      <point x="320" y="120" type="line"/>
      <point x="444" y="295" type="line"/>
      <point x="382" y="470" type="line"/>
      <point x="273" y="470" type="line"/>
      <point x="337" y="295" type="line"/>
    </contour>
    <contour>
      <point x="19" y="120" type="line"/>
      <point x="128" y="120" type="line"/>
      <point x="252" y="295" type="line"/>
      <point x="190" y="470" type="line"/>
      <point x="81" y="470" type="line"/>
      <point x="145" y="295" type="line"/>
    </contour>
  </outline>
</glyph>
<glyph name="AE" format="1">
  <advance width="921"/>
  <unicode hex="00C6"/>
  <outline>
    <contour>
      <point x="191" y="231" type="line"/>
      <point x="125" y="142" type="line"/>
      <point x="498" y="142" type="line"/>
      <point x="514" y="231" type="line"/>
    </contour>
    <contour>
      <point x="641" y="607" type="line"/>
      <point x="910" y="607" type="line"/>
      <point x="926" y="696" type="line"/>
      <point x="466" y="696" type="line"/>
      <point x="-40" y="0" type="line"/>
      <point x="84" y="0" type="line"/>
      <point x="529" y="617" type="line"/>
      <point x="420" y="0" type="line"/>
      <point x="803" y="0" type="line"/>
      <point x="819" y="89" type="line"/>
      <point x="550" y="89" type="line"/>
      <point x="589" y="308" type="line"/>
      <point x="828" y="308" type="line"/>
      <point x="843" y="396" type="line"/>
      <point x="604" y="396" type="line"/>
    </contour>
  </outline>
</glyph>
<glyph name="multiply" format="1">
  <advance width="699"/>
  <unicode hex="00D7"/>
  <outline>
    <contour>
      <point x="252" y="587" type="line"/>
      <point x="166" y="514" type="line"/>
      <point x="475" y="138" type="line"/>
      <point x="561" y="211" type="line"/>
    </contour>
    <contour>
      <point x="109" y="213" type="line"/>
      <point x="171" y="138" type="line"/>
      <point x="612" y="512" type="line"/>
      <point x="550" y="587" type="line"/>
    </contour>
  </outline>
</glyph>
<glyph name="Oslash" format="1">
  <advance width="784"/>
  <unicode hex="00D8"/>
  <outline>
    <contour>
      <point x="738" y="696" type="line"/>
      <point x="-26" y="0" type="line"/>
      <point x="65" y="0" type="line"/>
      <point x="829" y="696" type="line"/>
    </contour>
    <component base="O"/>
  </outline>
</glyph>
<glyph name="ae" format="1">
  <advance width="967"/>
  <unicode hex="00E6"/>
  <outline>
    <contour>
      <point x="508" y="165" type="curve" smooth="yes"/>
      <point x="526" y="187" type="line"/>
      <point x="550" y="323" type="line" smooth="yes"/>
      <point x="553" y="340"/>
      <point x="555" y="358"/>
      <point x="555" y="377" type="curve" smooth="yes"/>
      <point x="555" y="499"/>
      <point x="469" y="567"/>
      <point x="348" y="567" type="curve" smooth="yes"/>
      <point x="204" y="567"/>
      <point x="110" y="472"/>
      <point x="77" y="362" type="curve"/>
      <point x="189" y="362" type="line"/>
      <point x="213" y="434"/>
      <point x="267" y="473"/>
      <point x="331" y="473" type="curve" smooth="yes"/>
      <point x="400" y="473"/>
      <point x="437" y="432"/>
      <point x="437" y="362" type="curve" smooth="yes"/>
      <point x="437" y="351"/>
      <point x="436" y="339"/>
      <point x="434" y="323" type="curve"/>
      <point x="279" y="323" type="line" smooth="yes"/>
      <point x="135" y="323"/>
      <point x="23" y="252"/>
      <point x="23" y="132" type="curve" smooth="yes"/>
      <point x="23" y="46"/>
      <point x="81" y="-10"/>
      <point x="199" y="-10" type="curve" smooth="yes"/>
      <point x="268" y="-10"/>
      <point x="380" y="9"/>
    </contour>
    <contour>
      <point x="229" y="89" type="curve" smooth="yes"/>
      <point x="174" y="89"/>
      <point x="143" y="118"/>
      <point x="143" y="158" type="curve" smooth="yes"/>
      <point x="143" y="203"/>
      <point x="184" y="241"/>
      <point x="264" y="241" type="curve" smooth="yes"/>
      <point x="420" y="241" type="line"/>
      <point x="420" y="242" type="line"/>
      <point x="401" y="136"/>
      <point x="299" y="89"/>
    </contour>
    <contour>
      <point x="531" y="323" type="line"/>
      <point x="515" y="241" type="line"/>
      <point x="926" y="241" type="line"/>
      <point x="931" y="254"/>
      <point x="936" y="268"/>
      <point x="940" y="291" type="curve" smooth="yes"/>
      <point x="969" y="449"/>
      <point x="877" y="560"/>
      <point x="732" y="560" type="curve" smooth="yes"/>
      <point x="584" y="560"/>
      <point x="453" y="444"/>
      <point x="424" y="276" type="curve" smooth="yes"/>
      <point x="394" y="105"/>
      <point x="488" y="-9"/>
      <point x="634" y="-9" type="curve" smooth="yes"/>
      <point x="754" y="-9"/>
      <point x="854" y="68"/>
      <point x="902" y="164" type="curve"/>
      <point x="779" y="164" type="line"/>
      <point x="751" y="121"/>
      <point x="706" y="87"/>
      <point x="651" y="87" type="curve" smooth="yes"/>
      <point x="577" y="87"/>
      <point x="521" y="150"/>
      <point x="537" y="251" type="curve" smooth="yes"/>
      <point x="544" y="295" type="line" smooth="yes"/>
      <point x="561" y="400"/>
      <point x="640" y="464"/>
      <point x="713" y="464" type="curve" smooth="yes"/>
      <point x="781" y="464"/>
      <point x="840" y="410"/>
      <point x="826" y="323" type="curve"/>
    </contour>
  </outline>
</glyph>
<glyph name="oslash" format="1">
  <advance width="638"/>
  <unicode hex="00F8"/>
  <outline>
    <contour>
      <point x="576" y="551" type="line"/>
      <point x="-24" y="0" type="line"/>
      <point x="55" y="0" type="line"/>
      <point x="655" y="551" type="line"/>
    </contour>
    <component base="o"/>
  </outline>
</glyph>
<glyph name="dcroat" format="1">
  <advance width="678"/>
  <unicode hex="0111"/>
  <outline>
    <contour>
      <point x="470" y="656" type="line"/>
      <point x="458" y="590" type="line"/>
      <point x="714" y="590" type="line"/>
      <point x="726" y="656" type="line"/>
    </contour>
    <component base="d"/>
  </outline>
</glyph>
<glyph name="Gcommaaccent" format="1">
  <advance width="773"/>
  <unicode hex="0122"/>
  <outline>
    <contour>
      <point x="375" y="-46" type="curve"/>
      <point x="272" y="-46" type="line"/>
      <point x="255" y="-142" type="line"/>
      <point x="308" y="-142" type="line"/>
      <point x="305" y="-163" type="line" smooth="yes"/>
      <point x="298" y="-201"/>
      <point x="280" y="-220"/>
      <point x="246" y="-220" type="curve"/>
      <point x="237" y="-270" type="line"/>
      <point x="311" y="-270"/>
      <point x="357" y="-228"/>
      <point x="372" y="-145" type="curve" smooth="yes"/>
      <point x="377" y="-116"/>
      <point x="378" y="-83"/>
    </contour>
    <component base="G"/>
    <contour>
      <point x="334" y="0" type="move" name="_bottom"/>
    </contour>
  </outline>
</glyph>
<glyph name="gcommaaccent" format="1">
  <advance width="678"/>
  <unicode hex="0123"/>
  <outline>
    <contour>
      <point x="344" y="597" type="curve"/>
      <point x="447" y="597" type="line"/>
      <point x="464" y="694" type="line"/>
      <point x="412" y="694" type="line"/>
      <point x="415" y="715" type="line" smooth="yes"/>
      <point x="422" y="752"/>
      <point x="440" y="771"/>
      <point x="473" y="771" type="curve"/>
      <point x="482" y="821" type="line"/>
      <point x="408" y="821"/>
      <point x="363" y="779"/>
      <point x="348" y="696" type="curve" smooth="yes"/>
      <point x="343" y="667"/>
      <point x="341" y="634"/>
    </contour>
    <component base="g"/>
  </outline>
</glyph>
<glyph name="dotlessi" format="1">
  <advance width="264"/>
  <unicode hex="0131"/>
  <outline>
    <contour>
      <point x="120" y="551" type="line"/>
      <point x="23" y="0" type="line"/>
      <point x="137" y="0" type="line"/>
      <point x="234" y="551" type="line"/>
    </contour>
    <contour>
      <point x="188" y="10" type="move" name="ogonek"/>
    </contour>
    <contour>
      <point x="177" y="551" type="move" name="top"/>
    </contour>
  </outline>
</glyph>
<glyph name="Kcommaaccent" format="1">
  <advance width="633"/>
  <unicode hex="0136"/>
  <outline>
    <contour>
      <point x="305" y="-46" type="curve"/>
      <point x="202" y="-46" type="line"/>
      <point x="185" y="-142" type="line"/>
      <point x="238" y="-142" type="line"/>
      <point x="235" y="-163" type="line" smooth="yes"/>
      <point x="228" y="-201"/>
      <point x="210" y="-220"/>
      <point x="177" y="-220" type="curve"/>
      <point x="168" y="-270" type="line"/>
      <point x="242" y="-270"/>
      <point x="287" y="-228"/>
      <point x="302" y="-145" type="curve" smooth="yes"/>
      <point x="307" y="-116"/>
      <point x="309" y="-83"/>
    </contour>
    <component base="K"/>
    <contour>
      <point x="265" y="0" type="move" name="_bottom"/>
    </contour>
  </outline>
</glyph>
<glyph name="Lcaron" format="1">
  <advance width="463"/>
  <unicode hex="013D"/>
  <outline>
    <contour>
      <point x="471" y="695" type="curve"/>
      <point x="368" y="695" type="line"/>
      <point x="351" y="599" type="line"/>
      <point x="404" y="599" type="line"/>
      <point x="400" y="578" type="line" smooth="yes"/>
      <point x="394" y="540"/>
      <point x="375" y="521"/>
      <point x="342" y="521" type="curve"/>
      <point x="333" y="471" type="line"/>
      <point x="407" y="471"/>
      <point x="453" y="513"/>
      <point x="467" y="596" type="curve" smooth="yes"/>
      <point x="473" y="625"/>
      <point x="474" y="658"/>
    </contour>
    <component base="L"/>
    <contour>
      <point x="431" y="741" type="move" name="_bottom"/>
    </contour>
  </outline>
</glyph>
<glyph name="lslash" format="1">
  <advance width="264"/>
  <unicode hex="0142"/>
  <outline>
    <contour>
      <point x="22" y="365" type="line"/>
      <point x="3" y="259" type="line"/>
      <point x="265" y="344" type="line"/>
      <point x="284" y="449" type="line"/>
    </contour>
    <contour>
      <point x="154" y="740" type="line"/>
      <point x="23" y="0" type="line"/>
      <point x="137" y="0" type="line"/>
      <point x="268" y="740" type="line"/>
    </contour>
  </outline>
</glyph>
<glyph name="Ncommaaccent" format="1">
  <advance width="721"/>
  <unicode hex="0145"/>
  <outline>
    <contour>
      <point x="349" y="-46" type="curve"/>
      <point x="246" y="-46" type="line"/>
      <point x="229" y="-142" type="line"/>
      <point x="282" y="-142" type="line"/>
      <point x="279" y="-163" type="line" smooth="yes"/>
      <point x="272" y="-201"/>
      <point x="254" y="-220"/>
      <point x="221" y="-220" type="curve"/>
      <point x="212" y="-270" type="line"/>
      <point x="286" y="-270"/>
      <point x="331" y="-228"/>
      <point x="346" y="-145" type="curve" smooth="yes"/>
      <point x="351" y="-116"/>
      <point x="353" y="-83"/>
    </contour>
    <component base="N"/>
    <contour>
      <point x="309" y="0" type="move" name="_bottom"/>
    </contour>
  </outline>
</glyph>
<glyph name="OE" format="1">
  <advance width="1067"/>
  <unicode hex="0152"/>
  <outline>
    <contour>
      <point x="805" y="606" type="line"/>
      <point x="1075" y="606" type="line"/>
      <point x="1091" y="695" type="line"/>
      <point x="707" y="695" type="line"/>
      <point x="688" y="589" type="line"/>
      <point x="644" y="665"/>
      <point x="565" y="704"/>
      <point x="460" y="704" type="curve" smooth="yes"/>
      <point x="275" y="704"/>
      <point x="90" y="559"/>
      <point x="53" y="349" type="curve" smooth="yes"/>
      <point x="16" y="140"/>
      <point x="149" y="-7"/>
      <point x="336" y="-7" type="curve" smooth="yes"/>
      <point x="440" y="-7"/>
      <point x="532" y="32"/>
      <point x="604" y="111" type="curve"/>
      <point x="584" y="0" type="line"/>
      <point x="968" y="0" type="line"/>
      <point x="984" y="89" type="line"/>
      <point x="714" y="89" type="line"/>
      <point x="752" y="307" type="line"/>
      <point x="992" y="307" type="line"/>
      <point x="1008" y="395" type="line"/>
      <point x="768" y="395" type="line"/>
    </contour>
    <contour>
      <point x="170" y="349" type="curve" smooth="yes"/>
      <point x="197" y="502"/>
      <point x="314" y="600"/>
      <point x="452" y="600" type="curve" smooth="yes"/>
      <point x="590" y="600"/>
      <point x="673" y="502"/>
      <point x="646" y="349" type="curve" smooth="yes"/>
      <point x="619" y="196"/>
      <point x="501" y="96"/>
      <point x="363" y="96" type="curve" smooth="yes"/>
      <point x="225" y="96"/>
      <point x="143" y="196"/>
    </contour>
  </outline>
</glyph>
<glyph name="oe" format="1">
  <advance width="1062"/>
  <unicode hex="0153"/>
  <outline>
    <contour>
      <point x="501" y="401"/>
      <point x="479" y="276" type="curve" smooth="yes"/>
      <point x="457" y="151"/>
      <point x="363" y="87"/>
      <point x="278" y="87" type="curve" smooth="yes"/>
      <point x="192" y="87"/>
      <point x="129" y="151"/>
      <point x="151" y="276" type="curve" smooth="yes"/>
      <point x="173" y="401"/>
      <point x="261" y="464"/>
      <point x="346" y="464" type="curve" smooth="yes"/>
      <point x="432" y="464"/>
    </contour>
    <contour>
      <point x="65" y="449"/>
      <point x="34" y="276" type="curve" smooth="yes"/>
      <point x="3" y="103"/>
      <point x="103" y="-9"/>
      <point x="261" y="-9" type="curve" smooth="yes"/>
      <point x="353" y="-9"/>
      <point x="442" y="33"/>
      <point x="505" y="107" type="curve"/>
      <point x="538" y="33"/>
      <point x="607" y="-9"/>
      <point x="699" y="-9" type="curve" smooth="yes"/>
      <point x="834" y="-9"/>
      <point x="935" y="68"/>
      <point x="983" y="164" type="curve"/>
      <point x="860" y="164" type="line"/>
      <point x="832" y="121"/>
      <point x="787" y="87"/>
      <point x="716" y="87" type="curve" smooth="yes"/>
      <point x="627" y="87"/>
      <point x="575" y="150"/>
      <point x="593" y="251" type="curve" smooth="yes"/>
      <point x="600" y="295" type="line" smooth="yes"/>
      <point x="619" y="400"/>
      <point x="696" y="464"/>
      <point x="782" y="464" type="curve" smooth="yes"/>
      <point x="867" y="464"/>
      <point x="924" y="407"/>
      <point x="910" y="315" type="curve"/>
      <point x="563" y="315" type="line"/>
      <point x="548" y="237" type="line"/>
      <point x="1011" y="237" type="line"/>
      <point x="1017" y="256"/>
      <point x="1022" y="274"/>
      <point x="1025" y="291" type="curve" smooth="yes"/>
      <point x="1053" y="451"/>
      <point x="961" y="560"/>
      <point x="804" y="560" type="curve" smooth="yes"/>
      <point x="709" y="560"/>
      <point x="625" y="518"/>
      <point x="566" y="446" type="curve"/>
      <point x="530" y="518"/>
      <point x="457" y="560"/>
      <point x="366" y="560" type="curve" smooth="yes"/>
      <point x="209" y="560"/>
    </contour>
  </outline>
</glyph>
<glyph name="tcaron" format="1">
  <advance width="377"/>
  <unicode hex="0165"/>
  <outline>
    <contour>
      <point x="471" y="784" type="curve"/>
      <point x="368" y="784" type="line"/>
      <point x="350" y="687" type="line"/>
      <point x="403" y="687" type="line"/>
      <point x="401" y="672" type="line" smooth="yes"/>
      <point x="397" y="649"/>
      <point x="379" y="640"/>
      <point x="346" y="640" type="curve"/>
      <point x="337" y="590" type="line"/>
      <point x="411" y="590"/>
      <point x="456" y="623"/>
      <point x="469" y="694" type="curve" smooth="yes"/>
      <point x="474" y="724"/>
      <point x="473" y="747"/>
    </contour>
    <component base="t"/>
  </outline>
</glyph>
<glyph name="Scommaaccent" format="1">
  <advance width="604"/>
  <unicode hex="0218"/>
  <outline>
    <contour>
      <point x="291" y="-46" type="curve"/>
      <point x="188" y="-46" type="line"/>
      <point x="171" y="-142" type="line"/>
      <point x="224" y="-142" type="line"/>
      <point x="221" y="-163" type="line" smooth="yes"/>
      <point x="214" y="-201"/>
      <point x="196" y="-220"/>
      <point x="162" y="-220" type="curve"/>
      <point x="153" y="-270" type="line"/>
      <point x="228" y="-270"/>
      <point x="273" y="-228"/>
      <point x="288" y="-145" type="curve" smooth="yes"/>
      <point x="293" y="-116"/>
      <point x="295" y="-83"/>
    </contour>
    <component base="S"/>
    <contour>
      <point x="251" y="0" type="move" name="_bottom"/>
    </contour>
  </outline>
</glyph>
<glyph name="circumflex" format="1">
  <advance width="306"/>
  <unicode hex="02C6"/>
  <outline>
    <contour>
      <point x="365" y="575" type="line"/>
      <point x="383" y="675" type="line"/>
      <point x="240" y="768" type="line"/>
      <point x="63" y="675" type="line"/>
      <point x="45" y="575" type="line"/>
      <point x="223" y="672" type="line"/>
    </contour>
    <contour>
      <point x="198" y="551" type="move" name="_top"/>
    </contour>
  </outline>
</glyph>
<glyph name="caron" format="1">
  <advance width="306"/>
  <unicode hex="02C7"/>
  <outline>
    <contour>
      <point x="380" y="768" type="line"/>
      <point x="222" y="682" type="line"/>
      <point x="94" y="768" type="line"/>
      <point x="78" y="679" type="line"/>
      <point x="206" y="596" type="line"/>
      <point x="364" y="679" type="line"/>
    </contour>
    <contour>
      <point x="198" y="551" type="move" name="_top"/>
    </contour>
  </outline>
</glyph>
<glyph name="breve" format="1">
  <advance width="321"/>
  <unicode hex="02D8"/>
  <outline>
    <contour>
      <point x="376" y="664"/>
      <point x="391" y="747" type="curve" smooth="yes"/>
      <point x="395" y="769" type="line"/>
      <point x="329" y="769" type="line"/>
      <point x="321" y="724"/>
      <point x="296" y="697"/>
      <point x="231" y="697" type="curve" smooth="yes"/>
      <point x="166" y="697"/>
      <point x="151" y="724"/>
      <point x="159" y="769" type="curve"/>
      <point x="94" y="769" type="line"/>
      <point x="90" y="748" type="line" smooth="yes"/>
      <point x="76" y="665"/>
      <point x="122" y="608"/>
      <point x="216" y="608" type="curve" smooth="yes"/>
      <point x="311" y="608"/>
    </contour>
    <contour>
      <point x="205" y="551" type="move" name="_top"/>
    </contour>
  </outline>
</glyph>
<glyph name="dotaccent" format="1">
  <advance width="140"/>
  <unicode hex="02D9"/>
  <outline>
    <contour>
      <point x="94" y="620"/>
      <point x="128" y="620" type="curve" smooth="yes"/>
      <point x="161" y="620"/>
      <point x="192" y="646"/>
      <point x="198" y="680" type="curve" smooth="yes"/>
      <point x="204" y="713"/>
      <point x="182" y="740"/>
      <point x="149" y="740" type="curve" smooth="yes"/>
      <point x="115" y="740"/>
      <point x="84" y="713"/>
      <point x="78" y="680" type="curve" smooth="yes"/>
      <point x="72" y="646"/>
    </contour>
    <contour>
      <point x="115" y="551" type="move" name="_top"/>
    </contour>
  </outline>
</glyph>
<glyph name="ogonek" format="1">
  <advance width="234"/>
  <unicode hex="02DB"/>
  <outline>
    <contour>
      <point x="138" y="58" type="line"/>
      <point x="92" y="39" type="line" smooth="yes"/>
      <point x="-9" y="-4"/>
      <point x="-51" y="-52"/>
      <point x="-60" y="-103" type="curve" smooth="yes"/>
      <point x="-74" y="-183"/>
      <point x="-9" y="-211"/>
      <point x="54" y="-211" type="curve" smooth="yes"/>
      <point x="83" y="-211"/>
      <point x="113" y="-205"/>
      <point x="138" y="-196" type="curve"/>
      <point x="151" y="-123" type="line"/>
      <point x="126" y="-132"/>
      <point x="101" y="-137"/>
      <point x="82" y="-137" type="curve" smooth="yes"/>
      <point x="48" y="-137"/>
      <point x="30" y="-119"/>
      <point x="35" y="-91" type="curve" smooth="yes"/>
      <point x="40" y="-67"/>
      <point x="57" y="-47"/>
      <point x="104" y="-25" type="curve" smooth="yes"/>
      <point x="157" y="0" type="line"/>
    </contour>
    <contour>
      <point x="157" y="0" type="move" name="_ogonek"/>
    </contour>
  </outline>
</glyph>
<glyph name="hungarumlaut" format="1">
  <advance width="365"/>
  <unicode hex="02DD"/>
  <outline>
    <contour>
      <point x="439" y="771" type="line"/>
      <point x="341" y="771" type="line"/>
      <point x="227" y="601" type="line"/>
      <point x="301" y="601" type="line"/>
    </contour>
    <contour>
      <point x="262" y="771" type="line"/>
      <point x="163" y="771" type="line"/>
      <point x="64" y="601" type="line"/>
      <point x="138" y="601" type="line"/>
    </contour>
    <contour>
      <point x="183" y="551" type="move" name="_top"/>
    </contour>
  </outline>
</glyph>
<glyph name="pi" format="1">
  <advance width="706"/>
  <unicode hex="03C0"/>
  <outline>
    <contour>
      <point x="76" y="551" type="line"/>
      <point x="61" y="462" type="line"/>
      <point x="137" y="462" type="line"/>
      <point x="55" y="0" type="line"/>
      <point x="169" y="0" type="line"/>
      <point x="251" y="462" type="line"/>
      <point x="510" y="462" type="line"/>
      <point x="428" y="0" type="line"/>
      <point x="541" y="0" type="line"/>
      <point x="623" y="462" type="line"/>
      <point x="700" y="462" type="line"/>
      <point x="715" y="551" type="line"/>
    </contour>
  </outline>
</glyph>
<glyph name="endash" format="1">
  <advance width="708"/>
  <unicode hex="2013"/>
  <outline>
    <contour>
      <point x="108" y="410" type="line"/>
      <point x="91" y="314" type="line"/>
      <point x="626" y="314" type="line"/>
      <point x="643" y="410" type="line"/>
    </contour>
  </outline>
</glyph>
<glyph name="emdash" format="1">
  <advance width="924"/>
  <unicode hex="2014"/>
  <outline>
    <contour>
      <point x="108" y="410" type="line"/>
      <point x="91" y="314" type="line"/>
      <point x="841" y="314" type="line"/>
      <point x="858" y="410" type="line"/>
    </contour>
  </outline>
</glyph>
<glyph name="bullet" format="1">
  <advance width="462"/>
  <unicode hex="2022"/>
  <outline>
    <contour>
      <point x="142" y="203"/>
      <point x="214" y="203" type="curve" smooth="yes"/>
      <point x="288" y="203"/>
      <point x="356" y="260"/>
      <point x="369" y="333" type="curve" smooth="yes"/>
      <point x="382" y="407"/>
      <point x="334" y="464"/>
      <point x="260" y="464" type="curve" smooth="yes"/>
      <point x="188" y="464"/>
      <point x="120" y="407"/>
      <point x="107" y="333" type="curve" smooth="yes"/>
      <point x="94" y="260"/>
    </contour>
  </outline>
</glyph>
<glyph name="guilsinglleft" format="1">
  <advance width="297"/>
  <unicode hex="2039"/>
  <outline>
    <contour>
      <point x="216" y="120" type="line"/>
      <point x="151" y="295" type="line"/>
      <point x="278" y="470" type="line"/>
      <point x="168" y="470" type="line"/>
      <point x="45" y="295" type="line"/>
      <point x="106" y="120" type="line"/>
    </contour>
  </outline>
</glyph>
<glyph name="guilsinglright" format="1">
  <advance width="297"/>
  <unicode hex="203A"/>
  <outline>
    <contour>
      <point x="19" y="120" type="line"/>
      <point x="128" y="120" type="line"/>
      <point x="252" y="295" type="line"/>
      <point x="190" y="470" type="line"/>
      <point x="81" y="470" type="line"/>
      <point x="145" y="295" type="line"/>
    </contour>
  </outline>
</glyph>
<glyph name="fraction" format="1">
  <advance width="587"/>
  <unicode hex="2044"/>
  <outline>
    <contour>
      <point x="521" y="696" type="line"/>
      <point x="-1" y="0" type="line"/>
      <point x="112" y="0" type="line"/>
      <point x="634" y="696" type="line"/>
    </contour>
  </outline>
</glyph>
<glyph name="increment" format="1">
  <advance width="696"/>
  <unicode hex="2206"/>
  <outline>
    <contour>
      <point x="372" y="696" type="line"/>
      <point x="-16" y="88" type="line"/>
      <point x="-32" y="0" type="line"/>
      <point x="624" y="0" type="line"/>
      <point x="640" y="88" type="line"/>
      <point x="466" y="696" type="line"/>
    </contour>
    <contour>
      <point x="396" y="566" type="line"/>
      <point x="523" y="88" type="line"/>
      <point x="101" y="88" type="line"/>
    </contour>
  </outline>
</glyph>
<glyph name="minus" format="1">
  <advance width="585"/>
  <unicode hex="2212"/>
  <outline>
    <contour>
      <point x="108" y="410" type="line"/>
      <point x="91" y="314" type="line"/>
      <point x="502" y="314" type="line"/>
      <point x="519" y="410" type="line"/>
    </contour>
  </outline>
</glyph>
<glyph name="radical" format="1">
  <advance width="829"/>
  <unicode hex="221A"/>
  <outline>
    <contour>
      <point x="839" y="879" type="line"/>
      <point x="260" y="77" type="line"/>
      <point x="284" y="64" type="line"/>
      <point x="190" y="305" type="line"/>
      <point x="6" y="206" type="line"/>
      <point x="30" y="149" type="line"/>
      <point x="106" y="190" type="line"/>
      <point x="197" y="-43" type="line"/>
      <point x="255" y="-43" type="line"/>
      <point x="921" y="879" type="line"/>
    </contour>
  </outline>
</glyph>
<glyph name="notequal" format="1">
  <advance width="752"/>
  <unicode hex="2260"/>
  <outline>
    <contour>
      <point x="626" y="617" type="line"/>
      <point x="88" y="105" type="line"/>
      <point x="172" y="105" type="line"/>
      <point x="710" y="617" type="line"/>
    </contour>
    <component base="equal"/>
  </outline>
</glyph>
<glyph name="greaterequal" format="1">
  <advance width="549"/>
  <unicode hex="2265"/>
  <outline>
    <contour>
      <point x="70" y="208" type="line"/>
      <point x="219" y="208" type="line"/>
      <point x="484" y="398" type="line"/>
      <point x="286" y="588" type="line"/>
      <point x="137" y="588" type="line"/>
      <point x="342" y="389" type="line"/>
      <point x="345" y="409" type="line"/>
    </contour>
    <contour>
      <point x="433" y="153" type="line"/>
      <point x="64" y="153" type="line"/>
      <point x="49" y="67" type="line"/>
      <point x="418" y="67" type="line"/>
    </contour>
  </outline>
</glyph>
<glyph name="lozenge" format="1">
  <advance width="557"/>
  <unicode hex="25CA"/>
  <outline>
    <contour>
      <point x="333" y="598" type="line"/>
      <point x="41" y="351" type="line"/>
      <point x="245" y="103" type="line"/>
      <point x="536" y="351" type="line"/>
    </contour>
    <contour>
      <point x="312" y="481" type="line"/>
      <point x="419" y="351" type="line"/>
      <point x="266" y="220" type="line"/>
      <point x="159" y="351" type="line"/>
    </contour>
  </outline>
</glyph>
<glyph name="a_o" format="1">
  <advance width="1024"/>
  <unicode hex="F1130"/>
  <outline>
    <contour>
      <point x="508" y="165" type="curve" smooth="yes"/>
      <point x="526" y="187" type="line"/>
      <point x="550" y="323" type="line" smooth="yes"/>
      <point x="553" y="340"/>
      <point x="555" y="358"/>
      <point x="555" y="377" type="curve" smooth="yes"/>
      <point x="555" y="499"/>
      <point x="469" y="567"/>
      <point x="348" y="567" type="curve" smooth="yes"/>
      <point x="204" y="567"/>
      <point x="110" y="472"/>
      <point x="77" y="362" type="curve"/>
      <point x="189" y="362" type="line"/>
      <point x="213" y="434"/>
      <point x="267" y="473"/>
      <point x="331" y="473" type="curve" smooth="yes"/>
      <point x="400" y="473"/>
      <point x="437" y="432"/>
      <point x="437" y="362" type="curve" smooth="yes"/>
      <point x="437" y="351"/>
      <point x="436" y="339"/>
      <point x="434" y="323" type="curve"/>
      <point x="279" y="323" type="line" smooth="yes"/>
      <point x="135" y="323"/>
      <point x="23" y="252"/>
      <point x="23" y="132" type="curve" smooth="yes"/>
      <point x="23" y="46"/>
      <point x="81" y="-10"/>
      <point x="199" y="-10" type="curve" smooth="yes"/>
      <point x="268" y="-10"/>
      <point x="380" y="9"/>
    </contour>
    <contour>
      <point x="229" y="89" type="curve" smooth="yes"/>
      <point x="174" y="89"/>
      <point x="143" y="118"/>
      <point x="143" y="158" type="curve" smooth="yes"/>
      <point x="143" y="203"/>
      <point x="184" y="241"/>
      <point x="264" y="241" type="curve" smooth="yes"/>
      <point x="420" y="241" type="line"/>
      <point x="420" y="242" type="line"/>
      <point x="401" y="136"/>
      <point x="299" y="89"/>
    </contour>
    <component base="o" xOffset="389"/>
  </outline>
</glyph>
<glyph name="c_h" format="1">
  <advance width="1005"/>
  <unicode hex="F1510"/>
  <outline>
    <contour>
      <point x="355" y="560" type="curve" smooth="yes"/>
      <point x="197" y="560"/>
      <point x="66" y="448"/>
      <point x="35" y="276" type="curve" smooth="yes"/>
      <point x="5" y="103"/>
      <point x="97" y="-9"/>
      <point x="255" y="-9" type="curve" smooth="yes"/>
      <point x="390" y="-9"/>
      <point x="491" y="66"/>
      <point x="541" y="174" type="curve"/>
      <point x="418" y="174" type="line"/>
      <point x="387" y="117"/>
      <point x="340" y="87"/>
      <point x="272" y="87" type="curve" smooth="yes"/>
      <point x="180" y="87"/>
      <point x="131" y="155"/>
      <point x="152" y="276" type="curve" smooth="yes"/>
      <point x="173" y="396"/>
      <point x="246" y="464"/>
      <point x="338" y="464" type="curve" smooth="yes"/>
      <point x="406" y="464"/>
      <point x="462" y="429"/>
      <point x="446" y="336" type="curve" smooth="yes"/>
      <point x="443" y="319" type="line"/>
      <point x="577" y="377" type="line"/>
      <point x="566" y="493"/>
      <point x="490" y="560"/>
    </contour>
    <contour>
      <point x="518" y="740" type="line"/>
      <point x="443" y="319" type="line"/>
      <point x="557" y="319" type="line"/>
      <point x="632" y="740" type="line"/>
    </contour>
    <contour>
      <point x="833" y="308" type="curve" smooth="yes"/>
      <point x="778" y="0" type="line"/>
      <point x="891" y="0" type="line"/>
      <point x="949" y="325" type="line" smooth="yes"/>
      <point x="976" y="479"/>
      <point x="894" y="560"/>
      <point x="771" y="560" type="curve" smooth="yes"/>
      <point x="675" y="560"/>
      <point x="585" y="510"/>
      <point x="548" y="432" type="curve"/>
      <point x="557" y="318" type="line"/>
      <point x="573" y="409"/>
      <point x="638" y="461"/>
      <point x="722" y="461" type="curve" smooth="yes"/>
      <point x="805" y="461"/>
      <point x="851" y="409"/>
    </contour>
  </outline>
</glyph>
<glyph name="c_q" format="1">
  <advance width="579"/>
  <unicode hex="F1540"/>
  <outline>
    <contour>
      <point x="426" y="174" type="line"/>
      <point x="349" y="-262" type="line"/>
      <point x="464" y="-262" type="line"/>
      <point x="541" y="174" type="line"/>
    </contour>
    <component base="c"/>
  </outline>
</glyph>
<glyph name="c_q_u_e.ss12" format="1">
  <advance width="1388"/>
  <unicode hex="F1560"/>
  <outline>
    <contour>
      <point x="890" y="0" type="line"/>
      <point x="987" y="551" type="line"/>
      <point x="873" y="551" type="line"/>
      <point x="776" y="0" type="line"/>
    </contour>
    <contour>
      <point x="541" y="174" type="curve"/>
      <point x="421" y="174" type="line"/>
      <point x="420" y="124"/>
      <point x="509" y="-8"/>
      <point x="623" y="-8" type="curve" smooth="yes"/>
      <point x="700" y="-8"/>
      <point x="790" y="42"/>
      <point x="825" y="120" type="curve"/>
      <point x="819" y="244" type="line"/>
      <point x="802" y="143"/>
      <point x="737" y="91"/>
      <point x="653" y="91" type="curve" smooth="yes"/>
      <point x="592" y="91"/>
      <point x="552" y="119"/>
    </contour>
    <component base="c_q"/>
    <component base="bout-e" xOffset="790"/>
  </outline>
</glyph>
<glyph name="d_u_d_e_l_a" format="1">
  <advance width="2360"/>
  <unicode hex="F1730"/>
  <outline>
    <contour>
      <point x="927" y="728" type="curve" smooth="yes"/>
      <point x="963" y="935" type="line"/>
      <point x="849" y="935" type="line"/>
      <point x="810" y="711" type="line" smooth="yes"/>
      <point x="783" y="557"/>
      <point x="867" y="476"/>
      <point x="1021" y="476" type="curve" smooth="yes"/>
      <point x="1172" y="476"/>
      <point x="1287" y="555"/>
      <point x="1314" y="711" type="curve" smooth="yes"/>
      <point x="1353" y="935" type="line"/>
      <point x="1239" y="935" type="line"/>
      <point x="1203" y="728" type="line" smooth="yes"/>
      <point x="1185" y="627"/>
      <point x="1121" y="575"/>
      <point x="1038" y="575" type="curve" smooth="yes"/>
      <point x="954" y="575"/>
      <point x="909" y="627"/>
    </contour>
    <contour>
      <point x="602" y="935" type="line"/>
      <point x="542" y="593" type="line"/>
      <point x="657" y="593" type="line"/>
      <point x="717" y="935" type="line"/>
    </contour>
    <component base="d"/>
    <component base="e" xOffset="678"/>
    <component base="l" xOffset="1509" identifier="D6262071"/>
    <component base="a" xOffset="1753" identifier="E34EE848"/>
  </outline>
</glyph>
<glyph name="Eacute_E" format="1">
  <advance width="911"/>
  <unicode hex="F1820"/>
  <outline>
    <contour>
      <point x="461" y="696" type="line"/>
      <point x="445" y="607" type="line"/>
      <point x="591" y="607" type="line"/>
      <point x="607" y="696" type="line"/>
    </contour>
    <contour>
      <point x="355" y="89" type="line"/>
      <point x="339" y="0" type="line"/>
      <point x="485" y="0" type="line"/>
      <point x="501" y="89" type="line"/>
    </contour>
    <contour>
      <point x="409" y="396" type="line"/>
      <point x="393" y="308" type="line"/>
      <point x="539" y="308" type="line"/>
      <point x="555" y="396" type="line"/>
    </contour>
    <component base="Eacute"/>
    <component base="E" xOffset="402" identifier="1B21422F"/>
  </outline>
</glyph>
<glyph name="e_a" format="1">
  <advance width="1002"/>
  <unicode hex="F1910"/>
  <outline>
    <contour>
      <point x="455" y="236" type="line"/>
      <point x="814" y="236" type="line"/>
      <point x="814" y="238" type="line"/>
      <point x="796" y="136"/>
      <point x="694" y="90"/>
      <point x="621" y="90" type="curve" smooth="yes"/>
      <point x="561" y="90"/>
      <point x="533" y="120"/>
      <point x="540" y="164" type="curve"/>
      <point x="422" y="155" type="line"/>
      <point x="405" y="60"/>
      <point x="472" y="-10"/>
      <point x="580" y="-10" type="curve" smooth="yes"/>
      <point x="664" y="-10"/>
      <point x="746" y="32"/>
      <point x="787" y="80" type="curve"/>
      <point x="772" y="0" type="line"/>
      <point x="888" y="0" type="line"/>
      <point x="945" y="323" type="line" smooth="yes"/>
      <point x="972" y="473"/>
      <point x="891" y="561"/>
      <point x="761" y="561" type="curve" smooth="yes"/>
      <point x="632" y="561"/>
      <point x="521" y="475"/>
      <point x="487" y="356" type="curve"/>
      <point x="585" y="319" type="line"/>
      <point x="599" y="413"/>
      <point x="660" y="462"/>
      <point x="736" y="462" type="curve" smooth="yes"/>
      <point x="813" y="462"/>
      <point x="841" y="407"/>
      <point x="830" y="328" type="curve"/>
      <point x="525" y="328" type="line"/>
    </contour>
    <contour>
      <point x="143" y="328" type="line"/>
      <point x="126" y="236" type="line"/>
      <point x="567" y="236" type="line"/>
      <point x="573" y="252"/>
      <point x="577" y="270"/>
      <point x="580" y="289" type="curve" smooth="yes"/>
      <point x="609" y="451"/>
      <point x="517" y="560"/>
      <point x="360" y="560" type="curve" smooth="yes"/>
      <point x="197" y="560"/>
      <point x="66" y="449"/>
      <point x="35" y="276" type="curve" smooth="yes"/>
      <point x="5" y="103"/>
      <point x="102" y="-9"/>
      <point x="260" y="-9" type="curve" smooth="yes"/>
      <point x="395" y="-9"/>
      <point x="495" y="68"/>
      <point x="540" y="164" type="curve"/>
      <point x="420" y="164" type="line"/>
      <point x="392" y="121"/>
      <point x="347" y="87"/>
      <point x="277" y="87" type="curve" smooth="yes"/>
      <point x="188" y="87"/>
      <point x="130" y="150"/>
      <point x="148" y="251" type="curve" smooth="yes"/>
      <point x="155" y="295" type="line" smooth="yes"/>
      <point x="174" y="400"/>
      <point x="252" y="464"/>
      <point x="338" y="464" type="curve" smooth="yes"/>
      <point x="423" y="464"/>
      <point x="481" y="410"/>
      <point x="468" y="328" type="curve"/>
    </contour>
  </outline>
</glyph>
<glyph name="e_s" format="1">
  <advance width="912"/>
  <unicode hex="F1950"/>
  <outline>
    <contour>
      <point x="553" y="278" type="line"/>
      <point x="546" y="233" type="line"/>
      <point x="652" y="233" type="line"/>
      <point x="659" y="278" type="line"/>
    </contour>
    <contour>
      <point x="132" y="325" type="line"/>
      <point x="116" y="233" type="line"/>
      <point x="567" y="233" type="line"/>
      <point x="573" y="252"/>
      <point x="577" y="270"/>
      <point x="580" y="289" type="curve" smooth="yes"/>
      <point x="609" y="451"/>
      <point x="517" y="560"/>
      <point x="360" y="560" type="curve" smooth="yes"/>
      <point x="197" y="560"/>
      <point x="66" y="449"/>
      <point x="35" y="276" type="curve" smooth="yes"/>
      <point x="5" y="103"/>
      <point x="102" y="-9"/>
      <point x="260" y="-9" type="curve" smooth="yes"/>
      <point x="395" y="-9"/>
      <point x="492" y="65"/>
      <point x="525" y="154" type="curve"/>
      <point x="421" y="169" type="line"/>
      <point x="395" y="121"/>
      <point x="347" y="87"/>
      <point x="277" y="87" type="curve" smooth="yes"/>
      <point x="188" y="87"/>
      <point x="132" y="150"/>
      <point x="148" y="251" type="curve" smooth="yes"/>
      <point x="155" y="295" type="line" smooth="yes"/>
      <point x="172" y="400"/>
      <point x="252" y="464"/>
      <point x="338" y="464" type="curve" smooth="yes"/>
      <point x="423" y="464"/>
      <point x="480" y="410"/>
      <point x="468" y="325" type="curve"/>
    </contour>
    <component base="s" xOffset="400" identifier="AD581EDE"/>
  </outline>
</glyph>
<glyph name="e_t" format="1">
  <advance width="744"/>
  <unicode hex="F1960"/>
  <outline>
    <contour>
      <point x="528" y="629" type="line"/>
      <point x="443" y="153" type="line" smooth="yes"/>
      <point x="423" y="41"/>
      <point x="477" y="0"/>
      <point x="575" y="0" type="curve" smooth="yes"/>
      <point x="665" y="0" type="line"/>
      <point x="682" y="95" type="line"/>
      <point x="612" y="95" type="line" smooth="yes"/>
      <point x="564" y="95"/>
      <point x="551" y="112"/>
      <point x="558" y="153" type="curve" smooth="yes"/>
      <point x="659" y="724" type="line"/>
    </contour>
    <contour>
      <point x="532" y="458" type="line"/>
      <point x="746" y="458" type="line"/>
      <point x="762" y="551" type="line"/>
      <point x="548" y="551" type="line"/>
    </contour>
    <component base="bout-e" identifier="9F1A1863"/>
  </outline>
</glyph>
<glyph name="e_t_t" format="1">
  <advance width="1117"/>
  <unicode hex="F1970"/>
  <outline>
    <contour>
      <point x="457" y="237" type="line"/>
      <point x="572" y="237" type="line"/>
      <point x="659" y="724" type="line"/>
      <point x="527" y="627" type="line"/>
    </contour>
    <contour>
      <point x="532" y="458" type="line"/>
      <point x="864" y="458" type="line"/>
      <point x="880" y="551" type="line"/>
      <point x="548" y="551" type="line"/>
    </contour>
    <contour>
      <point x="560" y="164" type="curve"/>
      <point x="445" y="164" type="line"/>
      <point x="423" y="41"/>
      <point x="477" y="0"/>
      <point x="575" y="0" type="curve" smooth="yes"/>
      <point x="665" y="0" type="line"/>
      <point x="682" y="95" type="line"/>
      <point x="612" y="95" type="line" smooth="yes"/>
      <point x="564" y="95"/>
      <point x="551" y="112"/>
    </contour>
    <component base="t" xOffset="747"/>
    <component base="e"/>
  </outline>
</glyph>
<glyph name="e_t_t_e.ss12" format="1">
  <advance width="1401"/>
  <unicode hex="F1980"/>
  <outline>
    <contour>
      <point x="457" y="237" type="line"/>
      <point x="572" y="237" type="line"/>
      <point x="659" y="724" type="line"/>
      <point x="527" y="627" type="line"/>
    </contour>
    <contour>
      <point x="532" y="458" type="line"/>
      <point x="934" y="458" type="line"/>
      <point x="950" y="551" type="line"/>
      <point x="548" y="551" type="line"/>
    </contour>
    <contour>
      <point x="560" y="164" type="curve"/>
      <point x="445" y="164" type="line"/>
      <point x="423" y="41"/>
      <point x="477" y="0"/>
      <point x="575" y="0" type="curve" smooth="yes"/>
      <point x="665" y="0" type="line"/>
      <point x="682" y="95" type="line"/>
      <point x="612" y="95" type="line" smooth="yes"/>
      <point x="564" y="95"/>
      <point x="551" y="112"/>
    </contour>
    <contour>
      <point x="901" y="629" type="line"/>
      <point x="816" y="153" type="line" smooth="yes"/>
      <point x="796" y="41"/>
      <point x="850" y="0"/>
      <point x="948" y="0" type="curve" smooth="yes"/>
      <point x="1038" y="0" type="line"/>
      <point x="1055" y="95" type="line"/>
      <point x="985" y="95" type="line" smooth="yes"/>
      <point x="937" y="95"/>
      <point x="924" y="112"/>
      <point x="931" y="153" type="curve" smooth="yes"/>
      <point x="1032" y="724" type="line"/>
    </contour>
    <component base="e"/>
    <component base="bout-e" xOffset="803"/>
  </outline>
</glyph>
<glyph name="e_u" format="1">
  <advance width="1006"/>
  <unicode hex="F19A0"/>
  <outline>
    <contour>
      <point x="887" y="0" type="line"/>
      <point x="984" y="551" type="line"/>
      <point x="870" y="551" type="line"/>
      <point x="773" y="0" type="line"/>
    </contour>
    <contour>
      <point x="543" y="164" type="curve"/>
      <point x="429" y="160" type="line"/>
      <point x="437" y="46"/>
      <point x="503" y="-8"/>
      <point x="609" y="-8" type="curve" smooth="yes"/>
      <point x="697" y="-8"/>
      <point x="787" y="42"/>
      <point x="822" y="120" type="curve"/>
      <point x="816" y="244" type="line"/>
      <point x="798" y="143"/>
      <point x="734" y="91"/>
      <point x="650" y="91" type="curve" smooth="yes"/>
      <point x="595" y="91"/>
      <point x="556" y="114"/>
    </contour>
    <component base="e"/>
  </outline>
</glyph>
<glyph name="e_s_s_e.ss12" format="1">
  <advance width="1871"/>
  <unicode hex="F19C0"/>
  <outline>
    <contour>
      <point x="551" y="278" type="line"/>
      <point x="544" y="233" type="line"/>
      <point x="650" y="233" type="line"/>
      <point x="657" y="278" type="line"/>
    </contour>
    <contour>
      <point x="132" y="325" type="line"/>
      <point x="116" y="233" type="line"/>
      <point x="567" y="233" type="line"/>
      <point x="573" y="252"/>
      <point x="577" y="270"/>
      <point x="580" y="289" type="curve" smooth="yes"/>
      <point x="609" y="451"/>
      <point x="517" y="560"/>
      <point x="360" y="560" type="curve" smooth="yes"/>
      <point x="197" y="560"/>
      <point x="66" y="449"/>
      <point x="35" y="276" type="curve" smooth="yes"/>
      <point x="5" y="103"/>
      <point x="102" y="-9"/>
      <point x="260" y="-9" type="curve" smooth="yes"/>
      <point x="395" y="-9"/>
      <point x="495" y="68"/>
      <point x="532" y="169" type="curve"/>
      <point x="421" y="169" type="line"/>
      <point x="395" y="121"/>
      <point x="347" y="87"/>
      <point x="277" y="87" type="curve" smooth="yes"/>
      <point x="188" y="87"/>
      <point x="130" y="150"/>
      <point x="148" y="251" type="curve" smooth="yes"/>
      <point x="155" y="295" type="line" smooth="yes"/>
      <point x="174" y="400"/>
      <point x="252" y="464"/>
      <point x="338" y="464" type="curve" smooth="yes"/>
      <point x="423" y="464"/>
      <point x="480" y="410"/>
      <point x="468" y="325" type="curve"/>
    </contour>
    <component base="s_s_e" xOffset="400"/>
  </outline>
</glyph>
<glyph name="f_f_e" format="1">
  <advance width="996"/>
  <unicode hex="F2130"/>
  <outline>
    <contour>
      <point x="350" y="551" type="line"/>
      <point x="334" y="458" type="line"/>
      <point x="522" y="458" type="line"/>
      <point x="538" y="551" type="line"/>
    </contour>
    <contour>
      <point x="146" y="590" type="curve" smooth="yes"/>
      <point x="42" y="0" type="line"/>
      <point x="157" y="0" type="line"/>
      <point x="261" y="590" type="line" smooth="yes"/>
      <point x="272" y="653"/>
      <point x="301" y="677"/>
      <point x="371" y="677" type="curve"/>
      <point x="387" y="772" type="line"/>
      <point x="243" y="772"/>
      <point x="169" y="717"/>
    </contour>
    <contour>
      <point x="74" y="551" type="line"/>
      <point x="58" y="458" type="line"/>
      <point x="340" y="458" type="line"/>
      <point x="356" y="551" type="line"/>
    </contour>
    <contour>
      <point x="478" y="590" type="curve" smooth="yes"/>
      <point x="374" y="0" type="line"/>
      <point x="489" y="0" type="line"/>
      <point x="593" y="590" type="line" smooth="yes"/>
      <point x="604" y="653"/>
      <point x="633" y="677"/>
      <point x="703" y="677" type="curve"/>
      <point x="719" y="772" type="line"/>
      <point x="575" y="772"/>
      <point x="500" y="717"/>
    </contour>
    <component base="bout-e" xOffset="388"/>
  </outline>
</glyph>
<glyph name="f_v" format="1">
  <advance width="588"/>
  <unicode hex="F2150"/>
  <outline>
    <contour>
      <point x="146" y="590" type="curve" smooth="yes"/>
      <point x="42" y="0" type="line"/>
      <point x="157" y="0" type="line"/>
      <point x="261" y="590" type="line" smooth="yes"/>
      <point x="272" y="653"/>
      <point x="300" y="677"/>
      <point x="370" y="677" type="curve"/>
      <point x="387" y="772" type="line"/>
      <point x="243" y="772"/>
      <point x="168" y="717"/>
    </contour>
    <contour>
      <point x="516" y="551" type="line"/>
      <point x="124" y="0" type="line"/>
      <point x="243" y="0" type="line"/>
      <point x="647" y="551" type="line"/>
    </contour>
    <contour>
      <point x="74" y="551" type="line"/>
      <point x="58" y="458" type="line"/>
      <point x="230" y="458" type="line"/>
      <point x="246" y="551" type="line"/>
    </contour>
  </outline>
</glyph>
<glyph name="f_v_e.ss12" format="1">
  <advance width="929"/>
  <unicode hex="F2160"/>
  <outline>
    <contour>
      <point x="146" y="590" type="curve" smooth="yes"/>
      <point x="42" y="0" type="line"/>
      <point x="157" y="0" type="line"/>
      <point x="261" y="590" type="line" smooth="yes"/>
      <point x="272" y="653"/>
      <point x="300" y="677"/>
      <point x="370" y="677" type="curve"/>
      <point x="387" y="772" type="line"/>
      <point x="243" y="772"/>
      <point x="168" y="717"/>
    </contour>
    <contour>
      <point x="431" y="431" type="line"/>
      <point x="124" y="0" type="line"/>
      <point x="243" y="0" type="line"/>
      <point x="479" y="322" type="line"/>
    </contour>
    <contour>
      <point x="74" y="551" type="line"/>
      <point x="58" y="458" type="line"/>
      <point x="230" y="458" type="line"/>
      <point x="246" y="551" type="line"/>
    </contour>
    <component base="bout-e" xOffset="331"/>
  </outline>
</glyph>
<glyph name="h_o_f" format="1">
  <advance width="1133"/>
  <unicode hex="F2510"/>
  <outline>
    <contour>
      <point x="147" y="740" type="line"/>
      <point x="17" y="0" type="line"/>
      <point x="131" y="0" type="line"/>
      <point x="261" y="740" type="line"/>
    </contour>
    <contour>
      <point x="462" y="308" type="curve" smooth="yes"/>
      <point x="457" y="280" type="line"/>
      <point x="570" y="280" type="line"/>
      <point x="578" y="325" type="line" smooth="yes"/>
      <point x="605" y="479"/>
      <point x="524" y="560"/>
      <point x="401" y="560" type="curve" smooth="yes"/>
      <point x="305" y="560"/>
      <point x="215" y="510"/>
      <point x="177" y="432" type="curve"/>
      <point x="185" y="308" type="line"/>
      <point x="203" y="409"/>
      <point x="267" y="461"/>
      <point x="351" y="461" type="curve" smooth="yes"/>
      <point x="434" y="461"/>
      <point x="480" y="409"/>
    </contour>
    <contour>
      <point x="961" y="590" type="curve" smooth="yes"/>
      <point x="905" y="270" type="line"/>
      <point x="1020" y="270" type="line"/>
      <point x="1076" y="590" type="line" smooth="yes"/>
      <point x="1087" y="653"/>
      <point x="1115" y="677"/>
      <point x="1185" y="677" type="curve"/>
      <point x="1202" y="772" type="line"/>
      <point x="1058" y="772"/>
      <point x="983" y="717"/>
    </contour>
    <contour>
      <point x="969" y="551" type="line"/>
      <point x="953" y="458" type="line"/>
      <point x="1155" y="458" type="line"/>
      <point x="1171" y="551" type="line"/>
    </contour>
    <component base="o" xOffset="421"/>
  </outline>
</glyph>
<glyph name="I_E" format="1">
  <advance width="622"/>
  <unicode hex="F2610"/>
  <outline>
    <contour>
      <point x="126" y="696" type="line"/>
      <point x="111" y="607" type="line"/>
      <point x="435" y="607" type="line"/>
      <point x="450" y="696" type="line"/>
    </contour>
    <contour>
      <point x="19" y="89" type="line"/>
      <point x="4" y="0" type="line"/>
      <point x="328" y="0" type="line"/>
      <point x="343" y="89" type="line"/>
    </contour>
    <component base="E" xOffset="113"/>
  </outline>
</glyph>
<glyph name="l_l" format="1">
  <advance width="509"/>
  <unicode hex="F3320"/>
  <outline>
    <contour>
      <point x="27" y="53" type="line"/>
      <point x="14" y="-12" type="line" smooth="yes"/>
      <point x="-8" y="-123"/>
      <point x="41" y="-209"/>
      <point x="168" y="-209" type="curve" smooth="yes"/>
      <point x="295" y="-209"/>
      <point x="374" y="-124"/>
      <point x="393" y="-12" type="curve" smooth="yes"/>
      <point x="403" y="47" type="line"/>
      <point x="291" y="54" type="line"/>
      <point x="278" y="-14" type="line" smooth="yes"/>
      <point x="266" y="-76"/>
      <point x="230" y="-113"/>
      <point x="185" y="-113" type="curve" smooth="yes"/>
      <point x="140" y="-113"/>
      <point x="119" y="-76"/>
      <point x="129" y="-14" type="curve" smooth="yes"/>
      <point x="139" y="47" type="line"/>
    </contour>
    <component base="l" xOffset="1"/>
    <component base="l" xOffset="265"/>
  </outline>
</glyph>
<glyph name="l_u" format="1">
  <advance width="641"/>
  <unicode hex="F3350"/>
  <outline>
    <contour>
      <point x="86" y="393" type="line"/>
      <point x="199" y="387" type="line"/>
      <point x="268" y="774" type="line"/>
      <point x="137" y="679" type="line"/>
    </contour>
    <component base="u" xOffset="-1" identifier="694B2854"/>
  </outline>
</glyph>
<glyph name="n_n" format="1">
  <advance width="932"/>
  <unicode hex="F3740"/>
  <outline>
    <contour>
      <point x="777" y="408" type="curve" smooth="yes"/>
      <point x="722" y="100" type="line"/>
      <point x="835" y="100" type="line"/>
      <point x="893" y="425" type="line" smooth="yes"/>
      <point x="920" y="579"/>
      <point x="837" y="660"/>
      <point x="708" y="660" type="curve" smooth="yes"/>
      <point x="618" y="660"/>
      <point x="529" y="610"/>
      <point x="492" y="532" type="curve"/>
      <point x="500" y="408" type="line"/>
      <point x="517" y="509"/>
      <point x="582" y="561"/>
      <point x="666" y="561" type="curve" smooth="yes"/>
      <point x="749" y="561"/>
      <point x="794" y="509"/>
    </contour>
    <component base="n"/>
  </outline>
</glyph>
<glyph name="o_t" format="1">
  <advance width="1012"/>
  <unicode hex="F3940"/>
  <outline>
    <contour>
      <point x="811" y="629" type="line"/>
      <point x="735" y="203" type="line"/>
      <point x="850" y="203" type="line"/>
      <point x="942" y="724" type="line"/>
    </contour>
    <contour>
      <point x="715" y="458" type="line"/>
      <point x="1029" y="458" type="line"/>
      <point x="1045" y="551" type="line"/>
      <point x="731" y="551" type="line"/>
    </contour>
    <contour>
      <point x="589" y="226" type="line"/>
      <point x="468" y="98" type="line"/>
      <point x="483" y="33"/>
      <point x="532" y="-9"/>
      <point x="622" y="-9" type="curve" smooth="yes"/>
      <point x="749" y="-9"/>
      <point x="826" y="76"/>
      <point x="847" y="188" type="curve" smooth="yes"/>
      <point x="858" y="247" type="line"/>
      <point x="743" y="247" type="line"/>
      <point x="732" y="186" type="line" smooth="yes"/>
      <point x="721" y="124"/>
      <point x="684" y="87"/>
      <point x="639" y="87" type="curve" smooth="yes"/>
      <point x="594" y="87"/>
      <point x="571" y="124"/>
      <point x="582" y="186" type="curve" smooth="yes"/>
    </contour>
    <component base="o"/>
  </outline>
</glyph>
<glyph name="o_t_e.ss12" format="1">
  <advance width="1312"/>
  <unicode hex="F3950"/>
  <outline>
    <contour>
      <point x="811" y="629" type="line"/>
      <point x="735" y="203" type="line"/>
      <point x="850" y="203" type="line"/>
      <point x="942" y="724" type="line"/>
    </contour>
    <contour>
      <point x="715" y="458" type="line"/>
      <point x="829" y="458" type="line"/>
      <point x="845" y="551" type="line"/>
      <point x="731" y="551" type="line"/>
    </contour>
    <contour>
      <point x="589" y="226" type="line"/>
      <point x="468" y="98" type="line"/>
      <point x="483" y="33"/>
      <point x="532" y="-9"/>
      <point x="622" y="-9" type="curve" smooth="yes"/>
      <point x="749" y="-9"/>
      <point x="826" y="76"/>
      <point x="847" y="188" type="curve" smooth="yes"/>
      <point x="858" y="247" type="line"/>
      <point x="743" y="247" type="line"/>
      <point x="732" y="186" type="line" smooth="yes"/>
      <point x="721" y="124"/>
      <point x="684" y="87"/>
      <point x="639" y="87" type="curve" smooth="yes"/>
      <point x="594" y="87"/>
      <point x="571" y="124"/>
      <point x="582" y="186" type="curve" smooth="yes"/>
    </contour>
    <component base="o"/>
    <component base="bout-e" xOffset="714"/>
  </outline>
</glyph>
<glyph name="o_idieresis_n_e.ss12" format="1">
  <advance width="1704"/>
  <unicode hex="F3980"/>
  <outline>
    <contour>
      <point x="1146" y="308" type="curve" smooth="yes"/>
      <point x="1091" y="0" type="line"/>
      <point x="1204" y="0" type="line"/>
      <point x="1262" y="325" type="line" smooth="yes"/>
      <point x="1289" y="479"/>
      <point x="1206" y="560"/>
      <point x="1077" y="560" type="curve" smooth="yes"/>
      <point x="987" y="560"/>
      <point x="898" y="510"/>
      <point x="861" y="432" type="curve"/>
      <point x="869" y="308" type="line"/>
      <point x="886" y="409"/>
      <point x="951" y="461"/>
      <point x="1035" y="461" type="curve" smooth="yes"/>
      <point x="1118" y="461"/>
      <point x="1164" y="409"/>
    </contour>
    <component base="bout-e" xOffset="1106"/>
    <component base="o_idieresis"/>
  </outline>
</glyph>
<glyph name="p_m" format="1">
  <advance width="1410"/>
  <unicode hex="F4110"/>
  <outline>
    <contour>
      <point x="848" y="308" type="curve" smooth="yes"/>
      <point x="793" y="0" type="line"/>
      <point x="906" y="0" type="line"/>
      <point x="964" y="325" type="line" smooth="yes"/>
      <point x="991" y="479"/>
      <point x="907" y="560"/>
      <point x="778" y="560" type="curve" smooth="yes"/>
      <point x="688" y="560"/>
      <point x="600" y="510"/>
      <point x="563" y="432" type="curve"/>
      <point x="571" y="308" type="line"/>
      <point x="588" y="409"/>
      <point x="653" y="461"/>
      <point x="737" y="461" type="curve" smooth="yes"/>
      <point x="820" y="461"/>
      <point x="865" y="409"/>
    </contour>
    <contour>
      <point x="1238" y="308" type="curve" smooth="yes"/>
      <point x="1183" y="0" type="line"/>
      <point x="1296" y="0" type="line"/>
      <point x="1354" y="325" type="line" smooth="yes"/>
      <point x="1381" y="479"/>
      <point x="1297" y="560"/>
      <point x="1168" y="560" type="curve" smooth="yes"/>
      <point x="1080" y="560"/>
      <point x="987" y="510"/>
      <point x="946" y="432" type="curve"/>
      <point x="961" y="308" type="line"/>
      <point x="978" y="409"/>
      <point x="1043" y="461"/>
      <point x="1127" y="461" type="curve" smooth="yes"/>
      <point x="1210" y="461"/>
      <point x="1255" y="409"/>
    </contour>
    <component base="p"/>
  </outline>
</glyph>
<glyph name="r_e" format="1">
  <advance width="943"/>
  <unicode hex="F4510"/>
  <outline>
    <contour>
      <point x="153" y="290" type="curve"/>
      <point x="187" y="290" type="line"/>
      <point x="208" y="407"/>
      <point x="266" y="452"/>
      <point x="350" y="452" type="curve" smooth="yes"/>
      <point x="587" y="452" type="line"/>
      <point x="713" y="560" type="line"/>
      <point x="403" y="560" type="line" smooth="yes"/>
      <point x="259" y="560"/>
      <point x="179" y="433"/>
    </contour>
    <contour>
      <point x="119" y="551" type="line"/>
      <point x="22" y="0" type="line"/>
      <point x="136" y="0" type="line"/>
      <point x="233" y="551" type="line"/>
    </contour>
    <component base="bout-e" xOffset="345"/>
  </outline>
</glyph>
<glyph name="r_e.ss10" format="1">
  <advance width="816"/>
  <unicode hex="F4511"/>
  <outline>
    <contour>
      <point x="160" y="330" type="curve"/>
      <point x="187" y="290" type="line"/>
      <point x="208" y="407"/>
      <point x="376" y="622"/>
      <point x="580" y="622" type="curve" smooth="yes"/>
      <point x="589" y="622" type="line"/>
      <point x="610" y="740" type="line"/>
      <point x="592" y="740" type="line" smooth="yes"/>
      <point x="364" y="740"/>
      <point x="182" y="454"/>
    </contour>
    <contour>
      <point x="119" y="551" type="line"/>
      <point x="22" y="0" type="line"/>
      <point x="136" y="0" type="line"/>
      <point x="233" y="551" type="line"/>
    </contour>
    <component base="bout-e" xOffset="214" yOffset="-20" identifier="BAE03BFC"/>
  </outline>
</glyph>
<glyph name="r_i" format="1">
  <advance width="565"/>
  <unicode hex="F4570"/>
  <outline>
    <contour>
      <point x="153" y="290" type="curve"/>
      <point x="187" y="290" type="line"/>
      <point x="208" y="407"/>
      <point x="266" y="452"/>
      <point x="350" y="452" type="curve" smooth="yes"/>
      <point x="523" y="452" type="line"/>
      <point x="546" y="560" type="line"/>
      <point x="403" y="560" type="line" smooth="yes"/>
      <point x="259" y="560"/>
      <point x="179" y="433"/>
    </contour>
    <contour>
      <point x="119" y="551" type="line"/>
      <point x="22" y="0" type="line"/>
      <point x="136" y="0" type="line"/>
      <point x="233" y="551" type="line"/>
    </contour>
    <contour>
      <point x="434" y="697" type="curve" smooth="yes"/>
      <point x="427" y="656"/>
      <point x="453" y="624"/>
      <point x="494" y="624" type="curve" smooth="yes"/>
      <point x="534" y="624"/>
      <point x="572" y="656"/>
      <point x="579" y="697" type="curve" smooth="yes"/>
      <point x="586" y="738"/>
      <point x="560" y="770"/>
      <point x="520" y="770" type="curve" smooth="yes"/>
      <point x="479" y="770"/>
      <point x="441" y="738"/>
    </contour>
    <contour>
      <point x="505" y="369" type="line"/>
      <point x="391" y="369" type="line"/>
      <point x="326" y="0" type="line"/>
      <point x="440" y="0" type="line"/>
    </contour>
  </outline>
</glyph>
<glyph name="r_i.ss10" format="1">
  <advance width="594"/>
  <unicode hex="F4571"/>
  <outline>
    <contour>
      <point x="160" y="330" type="curve"/>
      <point x="187" y="290" type="line"/>
      <point x="208" y="407"/>
      <point x="376" y="622"/>
      <point x="540" y="622" type="curve" smooth="yes"/>
      <point x="589" y="622" type="line"/>
      <point x="610" y="740" type="line"/>
      <point x="562" y="740" type="line" smooth="yes"/>
      <point x="364" y="740"/>
      <point x="182" y="454"/>
    </contour>
    <contour>
      <point x="119" y="551" type="line"/>
      <point x="22" y="0" type="line"/>
      <point x="136" y="0" type="line"/>
      <point x="233" y="551" type="line"/>
    </contour>
    <contour>
      <point x="463" y="551" type="line"/>
      <point x="366" y="0" type="line"/>
      <point x="480" y="0" type="line"/>
      <point x="577" y="551" type="line"/>
    </contour>
  </outline>
</glyph>
<glyph name="r_s" format="1">
  <advance width="797"/>
  <unicode hex="F45C0"/>
  <outline>
    <contour>
      <point x="160" y="330" type="curve"/>
      <point x="187" y="290" type="line"/>
      <point x="207" y="407"/>
      <point x="265" y="442"/>
      <point x="349" y="442" type="curve" smooth="yes"/>
      <point x="477" y="442" type="line"/>
      <point x="566" y="550" type="line"/>
      <point x="397" y="550" type="line" smooth="yes"/>
      <point x="263" y="550"/>
      <point x="182" y="459"/>
    </contour>
    <contour>
      <point x="119" y="551" type="line"/>
      <point x="21" y="0" type="line"/>
      <point x="135" y="0" type="line"/>
      <point x="233" y="551" type="line"/>
    </contour>
    <component base="s" xOffset="285"/>
  </outline>
</glyph>
<glyph name="r_s.ss10" format="1">
  <advance width="462"/>
  <unicode hex="F45C1"/>
  <outline>
    <contour>
      <point x="175" y="-85" type="curve" smooth="yes"/>
      <point x="277" y="-85"/>
      <point x="383" y="-31"/>
      <point x="401" y="73" type="curve" smooth="yes"/>
      <point x="433" y="255"/>
      <point x="166" y="181"/>
      <point x="194" y="337" type="curve" smooth="yes"/>
      <point x="206" y="409"/>
      <point x="266" y="442"/>
      <point x="348" y="442" type="curve" smooth="yes"/>
      <point x="422" y="442" type="line"/>
      <point x="443" y="560" type="line"/>
      <point x="398" y="560" type="line" smooth="yes"/>
      <point x="268" y="560"/>
      <point x="186" y="465"/>
      <point x="160" y="342" type="curve"/>
      <point x="75" y="312" type="line"/>
      <point x="41" y="116"/>
      <point x="305" y="166"/>
      <point x="289" y="73" type="curve" smooth="yes"/>
      <point x="284" y="43"/>
      <point x="251" y="11"/>
      <point x="194" y="11" type="curve" smooth="yes"/>
      <point x="133" y="11"/>
      <point x="102" y="48"/>
      <point x="106" y="93" type="curve"/>
      <point x="-12" y="93" type="line"/>
      <point x="-26" y="-10"/>
      <point x="54" y="-85"/>
    </contour>
    <contour>
      <point x="117" y="551" type="line"/>
      <point x="75" y="312" type="line"/>
      <point x="186" y="293" type="line"/>
      <point x="231" y="551" type="line"/>
    </contour>
  </outline>
</glyph>
<glyph name="r_s_e.ss12" format="1">
  <advance width="1178"/>
  <unicode hex="F45D0"/>
  <outline>
    <contour>
      <point x="160" y="330" type="curve"/>
      <point x="187" y="290" type="line"/>
      <point x="207" y="407"/>
      <point x="265" y="442"/>
      <point x="349" y="442" type="curve" smooth="yes"/>
      <point x="467" y="442" type="line"/>
      <point x="556" y="550" type="line"/>
      <point x="397" y="550" type="line" smooth="yes"/>
      <point x="263" y="550"/>
      <point x="182" y="459"/>
    </contour>
    <contour>
      <point x="119" y="551" type="line"/>
      <point x="21" y="0" type="line"/>
      <point x="135" y="0" type="line"/>
      <point x="233" y="551" type="line"/>
    </contour>
    <component base="s_e" xOffset="275"/>
  </outline>
</glyph>
<glyph name="s_c" format="1">
  <advance width="887"/>
  <unicode hex="F4710"/>
  <outline>
    <contour>
      <point x="383" y="382" type="curve"/>
      <point x="505" y="382" type="line"/>
      <point x="539" y="435"/>
      <point x="591" y="464"/>
      <point x="651" y="464" type="curve" smooth="yes"/>
      <point x="719" y="464"/>
      <point x="757" y="430"/>
      <point x="767" y="377" type="curve"/>
      <point x="890" y="377" type="line"/>
      <point x="879" y="493"/>
      <point x="803" y="560"/>
      <point x="668" y="560" type="curve" smooth="yes"/>
      <point x="545" y="560"/>
      <point x="438" y="492"/>
    </contour>
    <contour>
      <point x="443" y="203" type="curve"/>
      <point x="360" y="116" type="line"/>
      <point x="392" y="37"/>
      <point x="467" y="-9"/>
      <point x="568" y="-9" type="curve" smooth="yes"/>
      <point x="703" y="-9"/>
      <point x="804" y="66"/>
      <point x="854" y="174" type="curve"/>
      <point x="731" y="174" type="line"/>
      <point x="700" y="117"/>
      <point x="653" y="87"/>
      <point x="585" y="87" type="curve" smooth="yes"/>
      <point x="516" y="87"/>
      <point x="471" y="126"/>
    </contour>
    <component base="s"/>
  </outline>
</glyph>
<glyph name="s_c_e.ss12" format="1">
  <advance width="1331"/>
  <unicode hex="F4720"/>
  <outline>
    <contour>
      <point x="660" y="560" type="curve" smooth="yes"/>
      <point x="537" y="560"/>
      <point x="431" y="492"/>
      <point x="376" y="383" type="curve"/>
      <point x="498" y="383" type="line"/>
      <point x="532" y="435"/>
      <point x="583" y="464"/>
      <point x="643" y="464" type="curve" smooth="yes"/>
      <point x="741" y="464"/>
      <point x="785" y="393"/>
      <point x="763" y="237" type="curve"/>
      <point x="874" y="355" type="line"/>
      <point x="869" y="503"/>
      <point x="795" y="560"/>
    </contour>
    <contour>
      <point x="820" y="141" type="curve"/>
      <point x="692" y="141" type="line"/>
      <point x="662" y="105"/>
      <point x="622" y="87"/>
      <point x="569" y="87" type="curve" smooth="yes"/>
      <point x="500" y="87"/>
      <point x="458" y="131"/>
      <point x="449" y="186" type="curve"/>
      <point x="344" y="116" type="line"/>
      <point x="376" y="37"/>
      <point x="451" y="-9"/>
      <point x="552" y="-9" type="curve" smooth="yes"/>
      <point x="673" y="-9"/>
      <point x="766" y="51"/>
    </contour>
    <component base="s"/>
    <component base="bout-e" xOffset="733"/>
  </outline>
</glyph>
<glyph name="s_e" format="1">
  <advance width="903"/>
  <unicode hex="F4740"/>
  <outline>
    <contour>
      <point x="376" y="383" type="curve"/>
      <point x="495" y="383" type="line"/>
      <point x="531" y="435"/>
      <point x="585" y="464"/>
      <point x="643" y="464" type="curve" smooth="yes"/>
      <point x="728" y="464"/>
      <point x="786" y="410"/>
      <point x="772" y="319" type="curve"/>
      <point x="277" y="319" type="line"/>
      <point x="261" y="237" type="line"/>
      <point x="872" y="237" type="line"/>
      <point x="878" y="256"/>
      <point x="883" y="274"/>
      <point x="886" y="291" type="curve" smooth="yes"/>
      <point x="914" y="451"/>
      <point x="822" y="560"/>
      <point x="665" y="560" type="curve" smooth="yes"/>
      <point x="539" y="560"/>
      <point x="432" y="494"/>
    </contour>
    <component base="s" identifier="873C8ECD"/>
  </outline>
</glyph>
<glyph name="s_l" format="1">
  <advance width="512"/>
  <unicode hex="F4760"/>
  <outline>
    <contour>
      <point x="238" y="520" type="line"/>
      <point x="352" y="520" type="line"/>
      <point x="397" y="774" type="line"/>
      <point x="266" y="679" type="line"/>
    </contour>
    <component base="s"/>
  </outline>
</glyph>
<glyph name="s_s" format="1">
  <advance width="1062"/>
  <unicode hex="F4790"/>
  <outline>
    <contour>
      <point x="67" y="398" type="curve" smooth="yes"/>
      <point x="67" y="220"/>
      <point x="341" y="246"/>
      <point x="341" y="148" type="curve" smooth="yes"/>
      <point x="341" y="101"/>
      <point x="291" y="81"/>
      <point x="231" y="81" type="curve" smooth="yes"/>
      <point x="164" y="81"/>
      <point x="127" y="119"/>
      <point x="132" y="169" type="curve"/>
      <point x="21" y="169" type="line"/>
      <point x="6" y="64"/>
      <point x="100" y="-9"/>
      <point x="224" y="-9" type="curve" smooth="yes"/>
      <point x="355" y="-9"/>
      <point x="453" y="52"/>
      <point x="453" y="152" type="curve" smooth="yes"/>
      <point x="453" y="323"/>
      <point x="182" y="299"/>
      <point x="182" y="403" type="curve" smooth="yes"/>
      <point x="182" y="443"/>
      <point x="214" y="464"/>
      <point x="275" y="464" type="curve" smooth="yes"/>
      <point x="337" y="464"/>
      <point x="396" y="422"/>
      <point x="436" y="345" type="curve" smooth="yes"/>
      <point x="536" y="151" type="line" smooth="yes"/>
      <point x="584" y="57"/>
      <point x="661" y="-9"/>
      <point x="777" y="-9" type="curve" smooth="yes"/>
      <point x="903" y="-9"/>
      <point x="1003" y="57"/>
      <point x="1003" y="152" type="curve" smooth="yes"/>
      <point x="1003" y="323"/>
      <point x="732" y="299"/>
      <point x="732" y="403" type="curve" smooth="yes"/>
      <point x="732" y="444"/>
      <point x="771" y="470"/>
      <point x="828" y="470" type="curve" smooth="yes"/>
      <point x="894" y="470"/>
      <point x="931" y="435"/>
      <point x="926" y="383" type="curve"/>
      <point x="1034" y="383" type="line"/>
      <point x="1047" y="489"/>
      <point x="960" y="560"/>
      <point x="835" y="560" type="curve" smooth="yes"/>
      <point x="706" y="560"/>
      <point x="617" y="495"/>
      <point x="617" y="398" type="curve" smooth="yes"/>
      <point x="617" y="220"/>
      <point x="891" y="246"/>
      <point x="891" y="148" type="curve" smooth="yes"/>
      <point x="891" y="112"/>
      <point x="854" y="87"/>
      <point x="802" y="87" type="curve" smooth="yes"/>
      <point x="715" y="87"/>
      <point x="659" y="130"/>
      <point x="620" y="206" type="curve" smooth="yes"/>
      <point x="518" y="403" type="line" smooth="yes"/>
      <point x="469" y="497"/>
      <point x="411" y="560"/>
      <point x="286" y="560" type="curve" smooth="yes"/>
      <point x="166" y="560"/>
      <point x="67" y="502"/>
    </contour>
  </outline>
</glyph>
<glyph name="s_s_e" format="1">
  <advance width="1471"/>
  <unicode hex="F47A0"/>
  <outline>
    <contour>
      <point x="944" y="383" type="curve"/>
      <point x="1063" y="383" type="line"/>
      <point x="1099" y="435"/>
      <point x="1153" y="464"/>
      <point x="1211" y="464" type="curve" smooth="yes"/>
      <point x="1296" y="464"/>
      <point x="1354" y="410"/>
      <point x="1340" y="319" type="curve"/>
      <point x="795" y="319" type="line"/>
      <point x="829" y="237" type="line"/>
      <point x="1440" y="237" type="line"/>
      <point x="1446" y="256"/>
      <point x="1451" y="274"/>
      <point x="1454" y="291" type="curve" smooth="yes"/>
      <point x="1482" y="451"/>
      <point x="1390" y="560"/>
      <point x="1233" y="560" type="curve" smooth="yes"/>
      <point x="1107" y="560"/>
      <point x="1000" y="494"/>
    </contour>
    <component base="s_s"/>
  </outline>
</glyph>
<glyph name="s_t_e.ss12" format="1">
  <advance width="1123"/>
  <unicode hex="F47D0"/>
  <outline>
    <contour>
      <point x="229" y="-9" type="curve" smooth="yes"/>
      <point x="353" y="-9"/>
      <point x="453" y="54"/>
      <point x="453" y="152" type="curve" smooth="yes"/>
      <point x="453" y="323"/>
      <point x="189" y="299"/>
      <point x="189" y="392" type="curve" smooth="yes"/>
      <point x="189" y="436"/>
      <point x="228" y="458"/>
      <point x="275" y="458" type="curve" smooth="yes"/>
      <point x="641" y="458" type="line"/>
      <point x="657" y="551" type="line"/>
      <point x="300" y="551" type="line" smooth="yes"/>
      <point x="162" y="551"/>
      <point x="72" y="475"/>
      <point x="72" y="372" type="curve" smooth="yes"/>
      <point x="72" y="210"/>
      <point x="341" y="240"/>
      <point x="341" y="149" type="curve" smooth="yes"/>
      <point x="341" y="99"/>
      <point x="288" y="81"/>
      <point x="227" y="81" type="curve" smooth="yes"/>
      <point x="160" y="81"/>
      <point x="128" y="124"/>
      <point x="132" y="169" type="curve"/>
      <point x="21" y="169" type="line"/>
      <point x="7" y="68"/>
      <point x="92" y="-9"/>
    </contour>
    <contour>
      <point x="622" y="627" type="line"/>
      <point x="538" y="153" type="line" smooth="yes"/>
      <point x="518" y="41"/>
      <point x="572" y="0"/>
      <point x="670" y="0" type="curve" smooth="yes"/>
      <point x="760" y="0" type="line"/>
      <point x="777" y="95" type="line"/>
      <point x="707" y="95" type="line" smooth="yes"/>
      <point x="659" y="95"/>
      <point x="646" y="112"/>
      <point x="653" y="153" type="curve" smooth="yes"/>
      <point x="754" y="724" type="line"/>
    </contour>
    <component base="bout-e" xOffset="525"/>
  </outline>
</glyph>
<glyph name="t_e" format="1">
  <advance width="654"/>
  <unicode hex="F4910"/>
  <outline>
    <contour>
      <point x="154" y="629" type="line"/>
      <point x="69" y="153" type="line" smooth="yes"/>
      <point x="49" y="41"/>
      <point x="103" y="0"/>
      <point x="201" y="0" type="curve" smooth="yes"/>
      <point x="291" y="0" type="line"/>
      <point x="308" y="95" type="line"/>
      <point x="238" y="95" type="line" smooth="yes"/>
      <point x="190" y="95"/>
      <point x="177" y="112"/>
      <point x="184" y="153" type="curve" smooth="yes"/>
      <point x="285" y="724" type="line"/>
    </contour>
    <contour>
      <point x="58" y="458" type="line"/>
      <point x="201" y="458" type="line"/>
      <point x="217" y="551" type="line"/>
      <point x="74" y="551" type="line"/>
    </contour>
    <component base="bout-e" xOffset="56"/>
  </outline>
</glyph>
<glyph name="t_e.ss10" format="1">
  <advance width="828"/>
  <unicode hex="F4911"/>
  <outline>
    <contour>
      <point x="163" y="627" type="line"/>
      <point x="79" y="153" type="line" smooth="yes"/>
      <point x="59" y="41"/>
      <point x="113" y="0"/>
      <point x="211" y="0" type="curve" smooth="yes"/>
      <point x="301" y="0" type="line"/>
      <point x="318" y="95" type="line"/>
      <point x="248" y="95" type="line" smooth="yes"/>
      <point x="200" y="95"/>
      <point x="187" y="112"/>
      <point x="194" y="153" type="curve" smooth="yes"/>
      <point x="295" y="724" type="line"/>
    </contour>
    <contour>
      <point x="58" y="458" type="line"/>
      <point x="333" y="458" type="line"/>
      <point x="349" y="551" type="line"/>
      <point x="74" y="551" type="line"/>
    </contour>
    <component base="bout-e" xOffset="269" yOffset="221"/>
  </outline>
</glyph>
<glyph name="t_t" format="1">
  <advance width="742"/>
  <unicode hex="F4970"/>
  <outline>
    <contour>
      <point x="348" y="551" type="line"/>
      <point x="332" y="458" type="line"/>
      <point x="468" y="458" type="line"/>
      <point x="484" y="551" type="line"/>
    </contour>
    <component base="t"/>
    <component base="t" xOffset="372"/>
  </outline>
</glyph>
<glyph name="t_t_e" format="1">
  <advance width="1026"/>
  <unicode hex="F4980"/>
  <outline>
    <contour>
      <point x="302" y="458" type="line"/>
      <point x="506" y="458" type="line"/>
      <point x="522" y="551" type="line"/>
      <point x="318" y="551" type="line"/>
    </contour>
    <component base="t"/>
    <component base="t_e" xOffset="372"/>
  </outline>
</glyph>
<glyph name="x_c" format="1">
  <advance width="785"/>
  <unicode hex="F5710"/>
  <outline>
    <contour>
      <point x="231" y="188" type="line"/>
      <point x="305" y="282" type="line"/>
      <point x="178" y="551" type="line"/>
      <point x="60" y="551" type="line"/>
    </contour>
    <contour>
      <point x="260" y="225" type="line"/>
      <point x="222" y="313" type="line"/>
      <point x="-39" y="0" type="line"/>
      <point x="85" y="0" type="line"/>
    </contour>
    <component base="c" xOffset="206" identifier="9BF22AFC"/>
  </outline>
</glyph>
<glyph name="x_c_e.ss12" format="1">
  <advance width="1232"/>
  <unicode hex="F5720"/>
  <outline>
    <contour>
      <point x="231" y="188" type="line"/>
      <point x="305" y="282" type="line"/>
      <point x="178" y="551" type="line"/>
      <point x="60" y="551" type="line"/>
    </contour>
    <contour>
      <point x="260" y="225" type="line"/>
      <point x="222" y="313" type="line"/>
      <point x="-39" y="0" type="line"/>
      <point x="85" y="0" type="line"/>
    </contour>
    <contour>
      <point x="562" y="560" type="curve" smooth="yes"/>
      <point x="404" y="560"/>
      <point x="272" y="448"/>
      <point x="242" y="276" type="curve" smooth="yes"/>
      <point x="212" y="103"/>
      <point x="304" y="-9"/>
      <point x="462" y="-9" type="curve" smooth="yes"/>
      <point x="583" y="-9"/>
      <point x="676" y="51"/>
      <point x="731" y="142" type="curve"/>
      <point x="603" y="142" type="line"/>
      <point x="573" y="106"/>
      <point x="533" y="87"/>
      <point x="479" y="87" type="curve" smooth="yes"/>
      <point x="387" y="87"/>
      <point x="338" y="155"/>
      <point x="359" y="276" type="curve" smooth="yes"/>
      <point x="380" y="396"/>
      <point x="453" y="464"/>
      <point x="545" y="464" type="curve" smooth="yes"/>
      <point x="633" y="464"/>
      <point x="688" y="402"/>
      <point x="664" y="237" type="curve"/>
      <point x="776" y="355" type="line"/>
      <point x="771" y="503"/>
      <point x="697" y="560"/>
    </contour>
    <component base="bout-e" xOffset="634"/>
  </outline>
</glyph>
<glyph name="x_s" format="1">
  <advance width="766"/>
  <unicode hex="F57A0"/>
  <outline>
    <contour>
      <point x="60" y="551" type="line"/>
      <point x="269" y="119" type="line" smooth="yes"/>
      <point x="312" y="30"/>
      <point x="388" y="-9"/>
      <point x="483" y="-9" type="curve" smooth="yes"/>
      <point x="614" y="-9"/>
      <point x="712" y="52"/>
      <point x="712" y="152" type="curve" smooth="yes"/>
      <point x="712" y="323"/>
      <point x="461" y="299"/>
      <point x="461" y="403" type="curve" smooth="yes"/>
      <point x="461" y="444"/>
      <point x="500" y="470"/>
      <point x="537" y="470" type="curve" smooth="yes"/>
      <point x="603" y="470"/>
      <point x="640" y="435"/>
      <point x="635" y="383" type="curve"/>
      <point x="743" y="383" type="line"/>
      <point x="756" y="489"/>
      <point x="669" y="560"/>
      <point x="544" y="560" type="curve" smooth="yes"/>
      <point x="435" y="560"/>
      <point x="346" y="495"/>
      <point x="346" y="398" type="curve" smooth="yes"/>
      <point x="346" y="220"/>
      <point x="600" y="246"/>
      <point x="600" y="148" type="curve" smooth="yes"/>
      <point x="600" y="101"/>
      <point x="550" y="81"/>
      <point x="497" y="81" type="curve" smooth="yes"/>
      <point x="439" y="81"/>
      <point x="390" y="112"/>
      <point x="364" y="166" type="curve" smooth="yes"/>
      <point x="178" y="551" type="line"/>
    </contour>
    <contour>
      <point x="260" y="225" type="line"/>
      <point x="222" y="313" type="line"/>
      <point x="-39" y="0" type="line"/>
      <point x="85" y="0" type="line"/>
    </contour>
  </outline>
</glyph>
<glyph name="x_s_e.ss12" format="1">
  <advance width="1162"/>
  <unicode hex="F57B0"/>
  <outline>
    <contour>
      <point x="635" y="383" type="curve"/>
      <point x="754" y="383" type="line"/>
      <point x="790" y="435"/>
      <point x="844" y="464"/>
      <point x="902" y="464" type="curve" smooth="yes"/>
      <point x="987" y="464"/>
      <point x="1045" y="410"/>
      <point x="1031" y="319" type="curve"/>
      <point x="536" y="319" type="line"/>
      <point x="520" y="237" type="line"/>
      <point x="1131" y="237" type="line"/>
      <point x="1137" y="256"/>
      <point x="1142" y="274"/>
      <point x="1145" y="291" type="curve" smooth="yes"/>
      <point x="1173" y="451"/>
      <point x="1081" y="560"/>
      <point x="924" y="560" type="curve" smooth="yes"/>
      <point x="798" y="560"/>
      <point x="691" y="494"/>
    </contour>
    <component base="x_s"/>
  </outline>
</glyph>
<glyph name="A.ss07" format="1">
  <advance width="695"/>
  <outline>
    <contour>
      <point x="490" y="696" type="line"/>
      <point x="358" y="696" type="line"/>
      <point x="-14" y="0" type="line"/>
      <point x="105" y="0" type="line"/>
      <point x="439" y="634" type="line"/>
      <point x="386" y="634" type="line"/>
      <point x="496" y="0" type="line"/>
      <point x="616" y="0" type="line"/>
    </contour>
    <contour>
      <point x="266" y="231" type="line"/>
      <point x="180" y="142" type="line"/>
      <point x="531" y="142" type="line"/>
      <point x="517" y="231" type="line"/>
    </contour>
    <contour>
      <point x="616" y="0" type="move" name="ogonek"/>
    </contour>
    <contour>
      <point x="424" y="696" type="move" name="top"/>
    </contour>
  </outline>
</glyph>
<glyph name="Aogonek.ss07" format="1">
  <advance width="695"/>
  <outline>
    <component base="A.ss07"/>
    <component base="ogonek" xOffset="459"/>
    <contour>
      <point x="657" y="0" type="move" name="_ogonek"/>
    </contour>
  </outline>
</glyph>
<glyph name="H.ss07" format="1">
  <advance width="705"/>
  <outline>
    <contour>
      <point x="149" y="695" type="line"/>
      <point x="26" y="0" type="line"/>
      <point x="140" y="0" type="line"/>
      <point x="263" y="695" type="line"/>
    </contour>
    <contour>
      <point x="590" y="695" type="line"/>
      <point x="467" y="0" type="line"/>
      <point x="581" y="0" type="line"/>
      <point x="704" y="695" type="line"/>
    </contour>
    <contour>
      <point x="279" y="395" type="line"/>
      <point x="194" y="307" type="line"/>
      <point x="548" y="307" type="line"/>
      <point x="564" y="395" type="line"/>
    </contour>
  </outline>
</glyph>
<glyph name="L.ss07" format="1">
  <advance width="439"/>
  <outline>
    <contour>
      <point x="26" y="0" type="line"/>
      <point x="149" y="695" type="line"/>
      <point x="263" y="695" type="line"/>
      <point x="141" y="0" type="line"/>
    </contour>
    <contour>
      <point x="141" y="0" type="line"/>
      <point x="225" y="87" type="line"/>
      <point x="391" y="87" type="line"/>
      <point x="375" y="0" type="line"/>
    </contour>
    <contour>
      <point x="199" y="0" type="move" name="bottom"/>
    </contour>
    <contour>
      <point x="201" y="10" type="move" name="commaaccent"/>
    </contour>
    <contour>
      <point x="296" y="696" type="move" name="top"/>
    </contour>
    <contour>
      <point x="498" y="696" type="move" name="topright"/>
    </contour>
  </outline>
</glyph>
<glyph name="Lcaron.ss07" format="1">
  <advance width="439"/>
  <outline>
    <component base="L.ss07"/>
    <component base="caron" xOffset="98" yOffset="145"/>
    <contour>
      <point x="431" y="741" type="move" name="_bottom"/>
    </contour>
  </outline>
</glyph>
<glyph name="R.ss07" format="1">
  <advance width="621"/>
  <outline>
    <contour>
      <point x="494" y="559"/>
      <point x="481" y="487" type="curve" smooth="yes"/>
      <point x="469" y="417"/>
      <point x="420" y="368"/>
      <point x="331" y="368" type="curve" smooth="yes"/>
      <point x="205" y="368" type="line"/>
      <point x="247" y="606" type="line"/>
      <point x="373" y="606" type="line" smooth="yes"/>
      <point x="462" y="606"/>
    </contour>
    <contour>
      <point x="389" y="695" type="curve" smooth="yes"/>
      <point x="149" y="695" type="line"/>
      <point x="26" y="0" type="line"/>
      <point x="140" y="0" type="line"/>
      <point x="189" y="278" type="line"/>
      <point x="315" y="278" type="line" smooth="yes"/>
      <point x="496" y="278"/>
      <point x="581" y="388"/>
      <point x="598" y="487" type="curve" smooth="yes"/>
      <point x="618" y="600"/>
      <point x="554" y="695"/>
    </contour>
    <contour>
      <point x="424" y="223" type="line"/>
      <point x="277" y="278" type="line"/>
      <point x="387" y="0" type="line"/>
      <point x="517" y="0" type="line"/>
    </contour>
    <contour>
      <point x="267" y="0" type="move" name="bottom"/>
    </contour>
    <contour>
      <point x="390" y="696" type="move" name="top"/>
    </contour>
  </outline>
</glyph>
<glyph name="T.ss07" format="1">
  <advance width="555"/>
  <outline>
    <contour>
      <point x="377" y="542" type="line"/>
      <point x="281" y="0" type="line"/>
      <point x="167" y="0" type="line"/>
      <point x="274" y="606" type="line"/>
    </contour>
    <contour>
      <point x="88" y="606" type="line"/>
      <point x="573" y="606" type="line"/>
      <point x="589" y="695" type="line"/>
      <point x="104" y="695" type="line"/>
    </contour>
    <contour>
      <point x="222" y="0" type="move" name="bottom"/>
    </contour>
    <contour>
      <point x="347" y="696" type="move" name="top"/>
    </contour>
  </outline>
</glyph>
<glyph name="a.ss02" format="1">
  <advance width="678"/>
  <outline>
    <contour>
      <point x="64" y="448"/>
      <point x="34" y="278" type="curve" smooth="yes"/>
      <point x="4" y="108"/>
      <point x="99" y="-9"/>
      <point x="242" y="-9" type="curve" smooth="yes"/>
      <point x="334" y="-9"/>
      <point x="408" y="35"/>
      <point x="451" y="82" type="curve"/>
      <point x="436" y="0" type="line"/>
      <point x="551" y="0" type="line"/>
      <point x="648" y="551" type="line"/>
      <point x="533" y="551" type="line"/>
      <point x="519" y="471" type="line"/>
      <point x="493" y="516"/>
      <point x="437" y="560"/>
      <point x="344" y="560" type="curve" smooth="yes"/>
      <point x="199" y="560"/>
    </contour>
    <contour>
      <point x="506" y="394"/>
      <point x="485" y="276" type="curve" smooth="yes"/>
      <point x="464" y="157"/>
      <point x="371" y="90"/>
      <point x="285" y="90" type="curve" smooth="yes"/>
      <point x="200" y="90"/>
      <point x="130" y="159"/>
      <point x="151" y="278" type="curve" smooth="yes"/>
      <point x="172" y="397"/>
      <point x="266" y="461"/>
      <point x="351" y="461" type="curve" smooth="yes"/>
      <point x="437" y="461"/>
    </contour>
    <contour>
      <point x="551" y="0" type="move" name="ogonek"/>
    </contour>
    <contour>
      <point x="384" y="551" type="move" name="top"/>
    </contour>
  </outline>
</glyph>
<glyph name="a_u_l_a" format="1">
  <advance width="2359"/>
  <outline>
    <contour>
      <point x="1346" y="89" type="curve" smooth="yes"/>
      <point x="1290" y="89"/>
      <point x="1259" y="117"/>
      <point x="1259" y="159" type="curve" smooth="yes"/>
      <point x="1259" y="203"/>
      <point x="1300" y="245"/>
      <point x="1380" y="245" type="curve" smooth="yes"/>
      <point x="1536" y="245" type="line"/>
      <point x="1536" y="242" type="line"/>
      <point x="1517" y="136"/>
      <point x="1415" y="89"/>
    </contour>
    <contour>
      <point x="1679" y="401" type="line"/>
      <point x="1563" y="400" type="line"/>
      <point x="1549" y="326" type="line"/>
      <point x="1393" y="326" type="line" smooth="yes"/>
      <point x="1250" y="326"/>
      <point x="1138" y="251"/>
      <point x="1138" y="134" type="curve" smooth="yes"/>
      <point x="1138" y="46"/>
      <point x="1202" y="-10"/>
      <point x="1299" y="-10" type="curve" smooth="yes"/>
      <point x="1387" y="-10"/>
      <point x="1469" y="32"/>
      <point x="1506" y="80" type="curve"/>
      <point x="1492" y="0" type="line"/>
      <point x="1608" y="0" type="line"/>
    </contour>
    <component base="agrave" identifier="827C3AA5"/>
    <component base="l" xOffset="863" identifier="7BE16CED"/>
    <component base="a" xOffset="1183" yOffset="384" identifier="769C2B27"/>
    <component base="u" xOffset="1785" yOffset="384" identifier="04855D83"/>
  </outline>
</glyph>
<glyph name="ae.ss02" format="1">
  <advance width="1085"/>
  <outline>
    <contour>
      <point x="598" y="319" type="line"/>
      <point x="583" y="237" type="line"/>
      <point x="1034" y="237" type="line"/>
      <point x="1040" y="256"/>
      <point x="1045" y="274"/>
      <point x="1048" y="291" type="curve" smooth="yes"/>
      <point x="1075" y="447"/>
      <point x="989" y="560"/>
      <point x="836" y="560" type="curve" smooth="yes"/>
      <point x="758" y="560"/>
      <point x="692" y="536"/>
      <point x="628" y="473" type="curve"/>
      <point x="641" y="551" type="line"/>
      <point x="534" y="551" type="line"/>
      <point x="521" y="473" type="line"/>
      <point x="486" y="532"/>
      <point x="428" y="560"/>
      <point x="350" y="560" type="curve" smooth="yes"/>
      <point x="199" y="560"/>
      <point x="64" y="448"/>
      <point x="34" y="278" type="curve" smooth="yes"/>
      <point x="4" y="108"/>
      <point x="99" y="-9"/>
      <point x="244" y="-9" type="curve" smooth="yes"/>
      <point x="328" y="-9"/>
      <point x="402" y="32"/>
      <point x="452" y="83" type="curve"/>
      <point x="437" y="0" type="line"/>
      <point x="544" y="0" type="line"/>
      <point x="559" y="83" type="line"/>
      <point x="588" y="30"/>
      <point x="654" y="-9"/>
      <point x="736" y="-9" type="curve" smooth="yes"/>
      <point x="864" y="-9"/>
      <point x="962" y="68"/>
      <point x="1010" y="164" type="curve"/>
      <point x="886" y="164" type="line"/>
      <point x="860" y="120"/>
      <point x="809" y="87"/>
      <point x="733" y="87" type="curve" smooth="yes"/>
      <point x="654" y="87"/>
      <point x="577" y="147"/>
      <point x="598" y="265" type="curve" smooth="yes"/>
      <point x="602" y="290" type="line" smooth="yes"/>
      <point x="621" y="394"/>
      <point x="709" y="464"/>
      <point x="800" y="464" type="curve" smooth="yes"/>
      <point x="890" y="464"/>
      <point x="948" y="407"/>
      <point x="935" y="319" type="curve"/>
    </contour>
    <contour>
      <point x="130" y="159"/>
      <point x="151" y="278" type="curve" smooth="yes"/>
      <point x="172" y="397"/>
      <point x="266" y="461"/>
      <point x="351" y="461" type="curve" smooth="yes"/>
      <point x="437" y="461"/>
      <point x="506" y="394"/>
      <point x="485" y="276" type="curve" smooth="yes"/>
      <point x="464" y="157"/>
      <point x="371" y="90"/>
      <point x="285" y="90" type="curve" smooth="yes"/>
      <point x="200" y="90"/>
    </contour>
  </outline>
</glyph>
<glyph name="ampersand.ss03" format="1">
  <advance width="663"/>
  <outline>
    <contour>
      <point x="415" y="740" type="curve" smooth="yes"/>
      <point x="294" y="740"/>
      <point x="213" y="658"/>
      <point x="198" y="573" type="curve" smooth="yes"/>
      <point x="189" y="522"/>
      <point x="204" y="476"/>
      <point x="238" y="418" type="curve" smooth="yes"/>
      <point x="254" y="390" type="line"/>
      <point x="287" y="392" type="line"/>
      <point x="278" y="404"/>
      <point x="271" y="410"/>
      <point x="254" y="410" type="curve" smooth="yes"/>
      <point x="148" y="410"/>
      <point x="42" y="325"/>
      <point x="20" y="203" type="curve" smooth="yes"/>
      <point x="-2" y="80"/>
      <point x="77" y="-8"/>
      <point x="193" y="-8" type="curve" smooth="yes"/>
      <point x="297" y="-8"/>
      <point x="393" y="67"/>
      <point x="425" y="159" type="curve"/>
      <point x="433" y="177"/>
      <point x="427" y="194"/>
      <point x="413" y="202" type="curve"/>
      <point x="389" y="159" type="line"/>
      <point x="478" y="0" type="line"/>
      <point x="614" y="0" type="line"/>
      <point x="334" y="482" type="line" smooth="yes"/>
      <point x="311" y="521"/>
      <point x="307" y="544"/>
      <point x="312" y="571" type="curve" smooth="yes"/>
      <point x="319" y="611"/>
      <point x="354" y="644"/>
      <point x="398" y="644" type="curve" smooth="yes"/>
      <point x="443" y="644"/>
      <point x="467" y="612"/>
      <point x="460" y="570" type="curve" smooth="yes"/>
      <point x="458" y="558"/>
      <point x="452" y="541"/>
      <point x="445" y="530" type="curve"/>
      <point x="557" y="530" type="line"/>
      <point x="565" y="545"/>
      <point x="572" y="564"/>
      <point x="575" y="581" type="curve" smooth="yes"/>
      <point x="589" y="661"/>
      <point x="536" y="740"/>
    </contour>
    <contour>
      <point x="110" y="138"/>
      <point x="121" y="204" type="curve" smooth="yes"/>
      <point x="133" y="270"/>
      <point x="190" y="321"/>
      <point x="252" y="321" type="curve" smooth="yes"/>
      <point x="313" y="321"/>
      <point x="354" y="270"/>
      <point x="342" y="204" type="curve" smooth="yes"/>
      <point x="331" y="138"/>
      <point x="272" y="86"/>
      <point x="211" y="86" type="curve" smooth="yes"/>
      <point x="149" y="86"/>
    </contour>
  </outline>
</glyph>
<glyph name="asterisk.alt" format="1">
  <advance width="504"/>
  <outline>
    <contour>
      <point x="284" y="590" type="line"/>
      <point x="332" y="736" type="line"/>
      <point x="233" y="590" type="line"/>
      <point x="132" y="680" type="line"/>
      <point x="199" y="549" type="line"/>
      <point x="54" y="498" type="line"/>
      <point x="217" y="505" type="line"/>
      <point x="173" y="360" type="line"/>
      <point x="269" y="505" type="line"/>
      <point x="368" y="415" type="line"/>
      <point x="300" y="548" type="line"/>
      <point x="446" y="599" type="line"/>
    </contour>
  </outline>
</glyph>
<glyph name="bout-e" format="1">
  <advance width="598"/>
  <outline>
    <contour>
      <point x="30" y="237" type="curve"/>
      <point x="146" y="237" type="line"/>
      <point x="146" y="241"/>
      <point x="147" y="246"/>
      <point x="148" y="251" type="curve" smooth="yes"/>
      <point x="155" y="295" type="line" smooth="yes"/>
      <point x="174" y="400"/>
      <point x="252" y="464"/>
      <point x="338" y="464" type="curve" smooth="yes"/>
      <point x="423" y="464"/>
      <point x="481" y="410"/>
      <point x="467" y="319" type="curve"/>
      <point x="142" y="319" type="line"/>
      <point x="126" y="237" type="line"/>
      <point x="567" y="237" type="line"/>
      <point x="573" y="256"/>
      <point x="578" y="274"/>
      <point x="581" y="291" type="curve" smooth="yes"/>
      <point x="609" y="451"/>
      <point x="517" y="560"/>
      <point x="360" y="560" type="curve" smooth="yes"/>
      <point x="197" y="560"/>
      <point x="66" y="449"/>
      <point x="35" y="276" type="curve" smooth="yes"/>
      <point x="32" y="262"/>
      <point x="31" y="249"/>
    </contour>
  </outline>
</glyph>
<glyph name="comma.ss01" format="1">
  <advance width="209"/>
  <outline>
    <contour>
      <point x="117" y="114" type="curve"/>
      <point x="0" y="114" type="line"/>
      <point x="-19" y="5" type="line"/>
      <point x="42" y="5" type="line"/>
      <point x="38" y="-18" type="line" smooth="yes"/>
      <point x="30" y="-62"/>
      <point x="9" y="-83"/>
      <point x="-27" y="-83" type="curve"/>
      <point x="-37" y="-138" type="line"/>
      <point x="46" y="-138"/>
      <point x="97" y="-92"/>
      <point x="114" y="2" type="curve" smooth="yes"/>
      <point x="119" y="34"/>
      <point x="120" y="72"/>
    </contour>
  </outline>
</glyph>
<glyph name="e.ss07" format="1">
  <advance width="608"/>
  <outline>
    <contour>
      <point x="225" y="319" type="line"/>
      <point x="146" y="237" type="line"/>
      <point x="567" y="237" type="line"/>
      <point x="573" y="256"/>
      <point x="578" y="274"/>
      <point x="581" y="291" type="curve" smooth="yes"/>
      <point x="609" y="451"/>
      <point x="517" y="560"/>
      <point x="360" y="560" type="curve" smooth="yes"/>
      <point x="197" y="560"/>
      <point x="66" y="449"/>
      <point x="35" y="276" type="curve" smooth="yes"/>
      <point x="4" y="103"/>
      <point x="102" y="-9"/>
      <point x="260" y="-9" type="curve" smooth="yes"/>
      <point x="395" y="-9"/>
      <point x="495" y="68"/>
      <point x="543" y="164" type="curve"/>
      <point x="420" y="164" type="line"/>
      <point x="392" y="121"/>
      <point x="347" y="87"/>
      <point x="277" y="87" type="curve" smooth="yes"/>
      <point x="188" y="87"/>
      <point x="132" y="150"/>
      <point x="148" y="251" type="curve" smooth="yes"/>
      <point x="155" y="295" type="line" smooth="yes"/>
      <point x="172" y="400"/>
      <point x="252" y="464"/>
      <point x="338" y="464" type="curve" smooth="yes"/>
      <point x="423" y="464"/>
      <point x="481" y="410"/>
      <point x="467" y="319" type="curve"/>
    </contour>
    <contour>
      <point x="258" y="0" type="move" name="bottom"/>
    </contour>
    <contour>
      <point x="370" y="14" type="move" name="ogonek"/>
    </contour>
    <contour>
      <point x="355" y="551" type="move" name="top"/>
    </contour>
  </outline>
</glyph>
<glyph name="e_a.ss11" format="1">
  <advance width="1011"/>
  <outline>
    <contour>
      <point x="396" y="233" type="line"/>
      <point x="412" y="325" type="line"/>
      <point x="143" y="325" type="line"/>
      <point x="127" y="233" type="line"/>
    </contour>
    <contour>
      <point x="464" y="295" type="curve" smooth="yes"/>
      <point x="437" y="180" type="line" smooth="yes"/>
      <point x="409" y="60"/>
      <point x="472" y="-10"/>
      <point x="586" y="-10" type="curve" smooth="yes"/>
      <point x="674" y="-10"/>
      <point x="755" y="32"/>
      <point x="796" y="80" type="curve"/>
      <point x="781" y="0" type="line"/>
      <point x="897" y="0" type="line"/>
      <point x="954" y="323" type="line" smooth="yes"/>
      <point x="981" y="473"/>
      <point x="890" y="561"/>
      <point x="760" y="561" type="curve" smooth="yes"/>
      <point x="703" y="561"/>
      <point x="652" y="546"/>
      <point x="621" y="527" type="curve"/>
      <point x="652" y="437" type="line"/>
      <point x="676" y="453"/>
      <point x="706" y="462"/>
      <point x="738" y="462" type="curve" smooth="yes"/>
      <point x="815" y="462"/>
      <point x="850" y="407"/>
      <point x="840" y="331" type="curve"/>
      <point x="644" y="331" type="line"/>
      <point x="628" y="239" type="line"/>
      <point x="824" y="239" type="line"/>
      <point x="823" y="238" type="line" smooth="yes"/>
      <point x="805" y="136"/>
      <point x="703" y="90"/>
      <point x="630" y="90" type="curve" smooth="yes"/>
      <point x="571" y="90"/>
      <point x="538" y="119"/>
      <point x="556" y="189" type="curve" smooth="yes"/>
      <point x="580" y="286" type="line" smooth="yes"/>
      <point x="621" y="451"/>
      <point x="518" y="560"/>
      <point x="359" y="560" type="curve" smooth="yes"/>
      <point x="198" y="560"/>
      <point x="66" y="449"/>
      <point x="35" y="277" type="curve" smooth="yes"/>
      <point x="4" y="102"/>
      <point x="102" y="-9"/>
      <point x="261" y="-9" type="curve" smooth="yes"/>
      <point x="304" y="-9"/>
      <point x="344" y="-1"/>
      <point x="380" y="13" type="curve"/>
      <point x="354" y="100" type="line"/>
      <point x="335" y="92"/>
      <point x="302" y="87"/>
      <point x="277" y="87" type="curve" smooth="yes"/>
      <point x="188" y="87"/>
      <point x="130" y="150"/>
      <point x="148" y="251" type="curve" smooth="yes"/>
      <point x="155" y="295" type="line" smooth="yes"/>
      <point x="174" y="400"/>
      <point x="251" y="464"/>
      <point x="340" y="464" type="curve" smooth="yes"/>
      <point x="422" y="464"/>
      <point x="492" y="410"/>
    </contour>
  </outline>
</glyph>
<glyph name="exclam.ss01" format="1">
  <advance width="289"/>
  <outline>
    <contour>
      <point x="155" y="697" type="line"/>
      <point x="82" y="210" type="line"/>
      <point x="177" y="210" type="line"/>
      <point x="276" y="697" type="line"/>
    </contour>
    <contour>
      <point x="52" y="132" type="line"/>
      <point x="28" y="0" type="line"/>
      <point x="157" y="0" type="line"/>
      <point x="181" y="132" type="line"/>
    </contour>
  </outline>
</glyph>
<glyph name="f.ss07" format="1">
  <advance width="366"/>
  <outline>
    <contour>
      <point x="146" y="590" type="curve" smooth="yes"/>
      <point x="42" y="0" type="line"/>
      <point x="157" y="0" type="line"/>
      <point x="261" y="590" type="line" smooth="yes"/>
      <point x="272" y="653"/>
      <point x="301" y="677"/>
      <point x="371" y="677" type="curve" smooth="yes"/>
      <point x="408" y="677" type="line"/>
      <point x="424" y="772" type="line"/>
      <point x="387" y="772" type="line" smooth="yes"/>
      <point x="243" y="772"/>
      <point x="168" y="717"/>
    </contour>
    <contour>
      <point x="168" y="458" type="line"/>
      <point x="187" y="551" type="line"/>
      <point x="74" y="551" type="line"/>
      <point x="58" y="458" type="line"/>
    </contour>
    <contour>
      <point x="327" y="551" type="line"/>
      <point x="238" y="458" type="line"/>
      <point x="373" y="458" type="line"/>
      <point x="389" y="551" type="line"/>
    </contour>
  </outline>
</glyph>
<glyph name="f_f" format="1">
  <advance width="665"/>
  <outline>
    <contour>
      <point x="302" y="551" type="line"/>
      <point x="302" y="458" type="line"/>
      <point x="430" y="458" type="line"/>
      <point x="430" y="551" type="line"/>
    </contour>
    <component base="f"/>
    <component base="f" xOffset="332"/>
  </outline>
</glyph>
<glyph name="f_f.ss07" format="1">
  <advance width="707"/>
  <outline>
    <contour>
      <point x="342" y="551" type="line"/>
      <point x="322" y="458" type="line"/>
      <point x="450" y="458" type="line"/>
      <point x="470" y="551" type="line"/>
    </contour>
    <component base="f.ss07"/>
    <component base="f.ss07" xOffset="341"/>
  </outline>
</glyph>
<glyph name="r.ss07" format="1">
  <advance width="390"/>
  <outline>
    <contour>
      <point x="119" y="551" type="line"/>
      <point x="22" y="0" type="line"/>
      <point x="136" y="0" type="line"/>
      <point x="233" y="551" type="line"/>
    </contour>
    <contour>
      <point x="306" y="551" type="line"/>
      <point x="217" y="458" type="line"/>
      <point x="402" y="458" type="line"/>
      <point x="418" y="551" type="line"/>
    </contour>
    <contour>
      <point x="79" y="0" type="move" name="bottom"/>
    </contour>
    <contour>
      <point x="285" y="551" type="move" name="top"/>
    </contour>
  </outline>
</glyph>
